<?xml version="1.0" encoding="UTF-8" standalone="no"?>
<svg
   width="1000"
   height="15"
   viewBox="0 0 1000 15"
   fill="none"
   version="1.1"
   id="svg2"
   sodipodi:docname="divider-02.svg"
   inkscape:version="1.4.2 (ebf0e940, 2025-05-08)"
   xmlns:inkscape="http://www.inkscape.org/namespaces/inkscape"
   xmlns:sodipodi="http://sodipodi.sourceforge.net/DTD/sodipodi-0.dtd"
   xmlns="http://www.w3.org/2000/svg"
   xmlns:svg="http://www.w3.org/2000/svg">
  <defs
     id="defs2" />
  <sodipodi:namedview
     id="namedview2"
     pagecolor="#ffffff"
     bordercolor="#000000"
     borderopacity="0.25"
     inkscape:showpageshadow="2"
     inkscape:pageopacity="0.0"
     inkscape:pagecheckerboard="0"
     inkscape:deskcolor="#d1d1d1"
     inkscape:zoom="8.4349915"
     inkscape:cx="25.963274"
     inkscape:cy="18.672218"
     inkscape:window-width="1536"
     inkscape:window-height="754"
     inkscape:window-x="0"
     inkscape:window-y="25"
     inkscape:window-maximized="0"
     inkscape:current-layer="svg2"
     showguides="true">
    <sodipodi:guide
       position="500.66107,156.85397"
       orientation="1,0"
       id="guide1"
       inkscape:locked="false" />
  </sodipodi:namedview>
  <path
     d="m 851.12539,6.9802999 c 29.0598,-0.1481852 16.84294,17.4100371 33.47259,0 12.46315,-13.0480105 14.32497,13.9882711 33.4726,0 14.51481,-10.603769 15.52252,7.5620331 32.46095,1.7342633 4.58563,-1.5025511 19.53969,-1.4452194 19.53969,-1.4452194"
     stroke="currentColor"
     stroke-width="0.774405"
     id="path1"
     style="opacity:0.75;stroke:#ad602b;stroke-width:0.482;stroke-dasharray:none;stroke-opacity:1"
     sodipodi:nodetypes="csscc" />
  <path
     d="m 184.81543,6.6571078 c -40.78045,-0.1480879 -23.63618,17.3987092 -46.97305,0 -17.4899,-13.0395194 -20.10264,13.9791692 -46.973068,0 C 70.500259,-3.939761 69.08611,14.214221 45.31592,8.3902445 38.880773,6.8886698 17.895307,6.9459648 17.895307,6.9459648"
     stroke="currentColor"
     stroke-width="0.774405"
     id="path1-2"
     style="opacity:0.75;stroke:#ad602b;stroke-width:0.570802;stroke-dasharray:none;stroke-opacity:1"
     sodipodi:nodetypes="csscc" />
  <path
     d="m 508.03164,6.9541912 c -44.73335,-0.14807 -28.53805,10.5795368 -51.52621,0 -21.07173,-9.6975643 -22.05122,13.9774778 -51.52623,0 -22.34345,-10.595587 -23.89468,7.5561978 -49.96894,1.732926 -7.05892,-1.501392 -30.07854,-1.444104 -30.07854,-1.444104"
     stroke="currentColor"
     stroke-width="0.774405"
     id="path1-2-8"
     style="opacity:0.75;stroke:#ad602b;stroke-width:0.59779;stroke-dasharray:none;stroke-opacity:1"
     sodipodi:nodetypes="csscc" />
  <path
     d="m 493.14765,7.3094223 c 44.73335,0.14807 26.50743,-8.11378893 50.94603,1.4504399 21.60084,8.4536518 22.05122,-13.9774789 51.52623,0 22.34345,10.5955898 23.74964,-9.00663878 49.8239,-3.1833664 7.05892,0.9212166 30.22358,1.4441045 30.22358,1.4441045"
     stroke="currentColor"
     stroke-width="0.774405"
     id="path1-2-8-2"
     style="opacity:0.75;stroke:#ad602b;stroke-width:0.59779;stroke-dasharray:none;stroke-opacity:1"
     sodipodi:nodetypes="csscc" />
  <path
     d="M 18.350957,7 H 1000"
     stroke="currentColor"
     stroke-width="0.990782"
     id="path2"
     style="fill:#744e36;stroke:#744e36;stroke-opacity:0.96862745;fill-opacity:0.96862745" />
  <g
     id="g4">
    <path
       d="M 1.5357246,8.9266128 C 1.9064712,8.5585565 2.4805304,8.475447 2.576207,8.7841394 2.671883,9.0572134 2.049986,9.5321248 1.5955225,9.5321248 c -0.5142614,0 -0.526221,-0.1424734 -0.059798,-0.605512 z"
       id="path1-8-3"
       style="fill:#739345;fill-opacity:1;stroke:none;stroke-width:0.0119161" />
    <path
       d="M 1.4280885,4.7236469 C 1.5955225,4.6167919 2.2174199,4.8779931 2.3011369,5.103576 2.4685709,5.5309963 2.0858647,5.6141058 1.607482,5.2460495 1.2726142,4.9848482 1.2247759,4.8423748 1.4280885,4.7236469 Z"
       id="path2-4-4"
       style="fill:#739345;fill-opacity:1;stroke:none;stroke-width:0.0119161" />
    <path
       d="m 1.8347138,6.4452007 c 0.4305444,0 0.6218975,0.071237 0.8610888,0.3086925 0.3109488,0.3086924 0.3109488,0.3205652 0.083717,0.4867841 C 2.49249,7.4425147 1.9303903,7.3356596 1.5596438,7.0032216 1.1410589,6.6114197 1.2247759,6.4452007 1.8347138,6.4452007 Z"
       id="path3-0-3"
       style="fill:#739345;fill-opacity:1;stroke:none;stroke-width:0.0119161" />
    <path
       d="M 1.5118055,7.8343166 C 1.8466734,7.5256242 2.6120857,7.5137514 2.6120857,7.810571 c 0,0.2493285 -0.5381806,0.5580209 -0.9089271,0.5105298 C 1.2965333,8.2736096 1.2247759,8.0955179 1.5118055,7.8343166 Z"
       id="path4-0-0"
       style="fill:#567d38;fill-opacity:0.992157;stroke:none;stroke-width:0.0119161" />
    <path
       d="m 1.7270777,10.671912 c 0.2989892,-0.118728 0.7414932,-0.08311 0.8371697,0.05936 0.1913531,0.308693 -0.6577762,0.474912 -0.8969675,0.178092 -0.1076361,-0.130601 -0.095677,-0.178092 0.059798,-0.237456 z"
       id="path5-6-4"
       style="fill:#739345;fill-opacity:1;stroke:none;stroke-width:0.0119161" />
    <path
       d="m 2.2891774,3.4770045 c 0.2511509,0 0.4903422,0.083109 0.6099379,0.2255829 C 3.1024279,3.9281703 3.1024279,3.9400431 2.851277,4.0706438 2.6240452,4.1893716 2.5283687,4.1774988 2.2772178,3.9875343 1.8107947,3.6432235 1.8107947,3.4770045 2.2891774,3.4770045 Z"
       id="path6-2-8"
       style="fill:#95b455;fill-opacity:1;stroke:none;stroke-width:0.0119161" />
    <path
       d="m 2.0978243,9.9001812 c 0.358787,-0.1899646 0.7773718,-0.166219 1.0883206,0.059364 0.2152722,0.1543458 0.2511509,0.2255828 0.1315552,0.3561838 -0.1913531,0.237455 -0.8730484,0.201837 -1.1959567,-0.05936 l -0.27507,-0.21371 z"
       id="path7-4-7"
       style="fill:#95b455;fill-opacity:1;stroke:none;stroke-width:0.0119161" />
    <path
       d="M 2.3130965,5.7565792 C 2.7197218,5.436014 3.210064,5.4241412 3.5808106,5.7209609 L 3.8558806,5.934671 3.4731745,6.1365083 C 3.0306705,6.3620913 2.6479644,6.373964 2.2652582,6.1602539 l -0.27507,-0.1543462 z"
       id="path8-7-5"
       style="fill:#95b455;fill-opacity:1;stroke:none;stroke-width:0.0119161" />
    <path
       d="M 2.6838431,4.3555906 C 3.0785088,4.2606083 3.4970936,4.4505729 3.7602041,4.8423748 4.0233146,5.2460495 3.8439211,5.436014 3.2818214,5.329159 2.8991153,5.2579222 2.3728943,4.7948836 2.3728943,4.5336824 c 0,-0.059364 0.1435148,-0.1424735 0.3109488,-0.1780918 z"
       id="path9-4-9"
       style="fill:#567d36;fill-opacity:0.992157;stroke:none;stroke-width:0.0119161" />
    <path
       d="m 2.7556005,11.111205 c 0.5262209,-0.474911 1.2916332,-0.486784 1.2916332,-0.03562 0,0.332438 -0.4664231,0.593639 -1.0404823,0.593639 -0.5860188,0 -0.6697358,-0.178092 -0.2511509,-0.558021 z"
       id="path10-1-5"
       style="fill:#567d36;fill-opacity:0.992157;stroke:none;stroke-width:0.0119161" />
    <path
       d="m 2.8034387,12.096646 c 0.2631105,-0.273074 0.6458166,-0.249328 0.6458166,0.03562 0,0.237455 -0.4185848,0.605512 -0.6816953,0.605512 -0.2152722,0 -0.191353,-0.415548 0.035879,-0.641131 z"
       id="path11-8-3"
       style="fill:#739345;fill-opacity:1;stroke:none;stroke-width:0.0119161" />
    <path
       d="M 2.9230344,7.9649172 C 3.1861449,7.478133 3.9037189,7.1931862 4.095072,7.5018786 4.3223037,7.8580622 3.568851,8.582302 2.9708727,8.582302 c -0.2870296,0 -0.2989892,-0.1780917 -0.047838,-0.6173848 z"
       id="path12-5-2"
       style="fill:#95b455;fill-opacity:1;stroke:none;stroke-width:0.0119161" />
    <path
       d="M 3.1024279,9.0097223 C 3.5210128,8.6654115 3.8917593,8.6179204 4.2385868,8.8791217 4.4658185,9.0572134 4.453859,9.0690862 4.1309507,9.3540331 3.7960828,9.6508527 3.4970936,9.7102166 2.9947918,9.579616 2.6479644,9.4846337 2.6599239,9.3777786 3.1024279,9.0097223 Z"
       id="path13-8-7"
       style="fill:#567d37;fill-opacity:0.992157;stroke:none;stroke-width:0.0119161" />
    <path
       d="M 3.1143875,2.4678178 C 3.5568915,2.5984184 4.0711528,3.2158032 4.0233146,3.5719868 3.9754763,4.0231526 3.6406084,4.0350254 3.210064,3.6194779 2.9469535,3.3464039 2.851277,3.1445665 2.851277,2.8240013 c 0,-0.3918019 0.023919,-0.4274202 0.2631105,-0.3561835 z"
       id="path14-9-3"
       style="fill:#739345;fill-opacity:1;stroke:none;stroke-width:0.0119161" />
    <path
       d="m 3.4253362,6.4452007 c 0.442504,0 0.885008,0.4274203 0.6218975,0.5936393 C 3.736285,7.2288046 3.0904683,6.9319849 3.0904683,6.6114197 c 0,-0.106855 0.1315553,-0.166219 0.3348679,-0.166219 z"
       id="path15-9-9"
       style="fill:#567d35;fill-opacity:0.992157;stroke:none;stroke-width:0.0119161" />
    <path
       d="m 3.6166893,12.66654 c 0.2152722,-0.486784 0.3707466,-0.569894 0.5979783,-0.332438 0.2870296,0.284947 0.2391914,0.926077 -0.095677,1.317879 L 3.8200019,13.984419 3.6406084,13.545126 C 3.4133766,13.022724 3.4133766,13.129579 3.6166893,12.66654 Z"
       id="path16-9-7"
       style="fill:#95b455;fill-opacity:1;stroke:none;stroke-width:0.0119161" />
    <path
       d="m 3.9823474,2.612003 c 0.3631101,0.194912 0.3612348,0.2129362 0.6205816,0.2596053 0.224139,0.040334 0.3615987,0.011685 0.5783037,0.1490487 0.2923205,0.185295 0.301149,0.1357823 0.659936,0.5157114 0.3468275,0.3799291 1.3992694,1.104169 2.1168434,1.4722254 0.3707466,0.1780917 0.717574,0.2493284 1.3155524,0.2493284 L 10.086815,5.2460495 9.6682302,4.8661203 C 9.4409984,4.6524102 9.1420092,4.4030817 8.9984944,4.3080994 8.6875457,4.0825165 8.3526778,3.5957324 8.3526778,3.3582767 c 0,-0.094982 0.1076361,-0.011873 0.2391914,0.2018373 0.191353,0.3086924 0.8132505,0.7361127 1.5786628,1.0804234 0.143515,0.071237 0.107636,-1.1991513 -0.03588,-1.6265715 C 10.038977,2.7527646 9.811745,2.5271817 9.3812006,2.2778532 9.0463327,2.0760159 8.9028179,1.957288 9.0702518,1.9929064 9.536675,2.123507 10.134653,2.5271817 10.290128,2.8002558 c 0.07176,0.1424734 0.179393,0.7004943 0.215272,1.2347696 l 0.08372,0.9854411 0.944806,0.8904589 0.944805,0.8785861 h 1.554744 c 2.833691,0.2064682 2.538544,-0.2820588 4.448833,-0.2926754 0.395206,0.00457 1.801791,1.0111238 0.828277,1.0008354 -1.751357,-0.018509 -1.416292,0.1480675 -2.657297,0.1551822 -0.586992,-0.00981 -1.174696,-0.034029 -2.681601,-0.069647 -1.758057,-0.047491 -1.983298,0.6310395 -2.234449,2.0913919 -0.09568,0.5580204 -0.298989,1.1991514 -0.466423,1.4840974 -0.155474,0.273074 -0.287029,0.629258 -0.287029,0.80735 0,0.320565 -0.29899,1.127914 -0.418585,1.127914 -0.03588,0 -0.02392,-0.09498 0.03588,-0.201837 0.0598,-0.118728 0.143515,-0.474911 0.191353,-0.783604 l 0.07176,-0.569893 -0.801291,0.415547 c -0.4425041,0.237456 -0.8132507,0.403675 -0.8491294,0.379929 -0.023919,-0.03562 0.071757,-0.118728 0.2152723,-0.189964 0.2152722,-0.118728 0.2391913,-0.166219 0.1076361,-0.249329 -0.1195957,-0.07124 -0.095677,-0.106855 0.1076361,-0.106855 0.3707469,0 0.8491289,-0.261201 1.2198759,-0.653003 0.251151,-0.273074 0.310949,-0.463039 0.370746,-1.3416246 0.03588,-0.5698937 0.0598,-1.0448051 0.0598,-1.0566778 -0.02392,-0.023746 -1.7700156,1.1991512 -2.2962366,1.6146984 -0.4903422,0.379929 -0.7654122,0.842968 -0.7773718,1.317879 -0.023919,0.368056 -0.023919,0.379929 -0.071757,0.08311 L 8.1015366,11.419898 7.372003,12.084774 c -0.8132505,0.747985 -1.2677141,1.06855 -1.3633906,0.973568 -0.035879,-0.03562 0.083717,-0.142473 0.27507,-0.237456 0.3946657,-0.21371 1.4710268,-1.329752 2.0929243,-2.196465 L 8.8191009,10.007036 H 8.2809204 c -0.5860188,0 -1.7819755,0.356184 -2.4397516,0.736113 -0.2989892,0.166219 -0.3468275,0.178092 -0.1793936,0.03562 0.1315553,-0.118728 0.5501401,-0.356183 0.9328463,-0.534275 L 7.2763168,9.912054 6.8936106,9.6627255 C 6.4271875,9.3659059 6.4869854,9.3421603 7.0251659,9.6033616 7.5633464,9.8764356 9.1180901,9.6864711 9.6801898,9.2827964 L 10.074855,9.0097223 9.4290389,8.807885 8.7712627,8.5941748 9.5845132,8.6654115 c 0.7773718,0.071237 0.8252098,0.059364 1.1720378,-0.273074 L 11.115338,8.0480267 10.840268,7.97679 C 10.385804,7.8461894 8.9745753,7.8580622 8.376597,8.0005356 8.0656482,8.0836451 7.6470634,8.2854824 7.4557103,8.4635742 6.8457724,9.0215951 6.3434706,9.2115597 5.7096135,9.1403229 5.2192713,9.080959 5.087716,9.1165774 4.6810908,9.413397 4.4299398,9.6033616 4.1787889,9.7695806 4.1189911,9.7695806 c -0.059798,0 0.1076361,-0.1780918 0.3946657,-0.3799292 L 5.0159586,8.9978495 4.5614951,8.7960122 C 3.9874359,8.5466837 4.095072,8.5229381 4.7767673,8.7603938 5.4704222,9.0097223 6.1879962,9.0097223 6.6424597,8.7841394 7.2404381,8.475447 7.216519,8.2617369 6.5826619,8.1786274 6.0923197,8.1073906 4.286425,7.2525501 4.286425,7.0863311 c 0,-0.035618 0.035879,-0.047491 0.083717,-0.023745 C 4.42994,7.0863311 4.7887269,7.2644234 5.171433,7.454388 6.0923197,7.9055533 7.132802,7.9886628 7.9938908,7.6799704 8.3167991,7.5612425 8.5918692,7.4306419 8.5918692,7.3950235 8.5918692,7.205059 7.491589,6.7776387 7.1806403,6.8488754 6.9414489,6.9082394 6.9055702,6.8963666 7.0371254,6.8132571 7.1925998,6.706402 7.1925998,6.6470381 7.049085,6.433328 L 6.8936106,6.1721267 7.216519,6.4214552 c 0.1793935,0.1424734 0.4305444,0.2612012 0.5381805,0.2612012 0.1195956,0 0.4425039,0.094982 0.7295336,0.225583 C 9.0702518,7.1575678 11.175136,7.3356596 11.462165,7.1575678 11.60568,7.0744584 11.581761,6.9794761 11.282772,6.6707837 10.660874,6.0059077 10.457562,5.8634343 9.8715428,5.7447064 9.0343731,5.5547419 8.2330822,5.5784874 6.6185406,5.8515615 5.8292092,5.9821621 4.8844034,6.0771444 4.5256164,6.0652716 3.8917593,6.0533988 3.9037189,6.0533988 4.7648077,5.9702894 5.25515,5.9109254 6.0086027,5.7921976 6.4391471,5.6853425 6.8696915,5.5784874 7.3600338,5.495378 7.5394273,5.495378 c 0.191353,0 0.3348678,-0.047491 0.3348678,-0.094982 0,-0.059364 -0.2989891,-0.3086924 -0.6697357,-0.5698937 C 6.8457724,4.5811735 6.2238749,4.0943893 5.8411687,3.7500786 5.446503,3.4057678 4.9800799,3.0970754 4.8006864,3.0495842 4.1907485,2.9189836 3.8546231,2.6973197 3.4636133,2.2458641 3.394546,2.1774138 3.8294769,2.5299446 3.9823474,2.612003 Z"
       id="path17-3-7"
       style="fill:#744f36;fill-opacity:1;stroke:none;stroke-width:0.0119161"
       sodipodi:nodetypes="sssccccccsccccccccccccsccccsscccccccsccccccccscccsccccccccccccccccccsccccccscccscccccscccccccsssccccs" />
    <path
       d="m 4.1309507,9.9357995 c 0.4783826,-0.083109 0.9328462,0.08311 1.160078,0.4511655 0.1674339,0.273074 0.023919,0.391802 -0.526221,0.391802 -0.3229083,0 -0.5620996,-0.09498 -0.7654123,-0.284947 C 3.5927702,10.113891 3.6047297,10.030782 4.1309507,9.9357995 Z"
       id="path18-3-9"
       style="fill:#739345;fill-opacity:1;stroke:none;stroke-width:0.0119161" />
    <path
       d="M 4.1907485,4.2012444 C 4.5614951,4.058771 4.9800799,4.1774988 5.2312308,4.4743184 5.6258965,4.9492298 4.7408886,5.0679577 4.2027081,4.6167919 L 3.8678402,4.331845 Z"
       id="path19-7-5"
       style="fill:#95b455;fill-opacity:1;stroke:none;stroke-width:0.0119161" />
    <path
       d="m 4.4179803,1.458631 c 0.4066253,0 1.0644014,0.5461482 1.0644014,0.8904589 0,0.4867842 -0.9687249,0.2612013 -1.2557545,-0.3086924 C 3.9635167,1.5536133 3.9993954,1.458631 4.4179803,1.458631 Z"
       id="path20-7-3"
       style="fill:#567d38;fill-opacity:0.992157;stroke:none;stroke-width:0.0119161" />
    <path
       d="M 4.4060207,5.1985583 C 4.5973738,5.0798305 4.9920395,5.2460495 5.1235947,5.4953779 5.2671095,5.768452 5.1116352,5.8990526 4.7648077,5.7921976 4.4658185,5.6972153 4.2385868,5.3054134 4.4060207,5.1985583 Z"
       id="path21-3-3"
       style="fill:#739345;fill-opacity:1;stroke:none;stroke-width:0.0119161" />
    <path
       d="m 4.4179803,6.207745 c 0.27507,0 0.5860188,0.2612013 0.5860188,0.4749114 0,0.2849469 -0.2750701,0.3086925 -0.526221,0.047491 C 4.2625059,6.5164375 4.2266272,6.207745 4.4179803,6.207745 Z"
       id="path22-2-3"
       style="fill:#739345;fill-opacity:1;stroke:none;stroke-width:0.0119161" />
    <path
       d="M 4.5136568,7.9886628 C 4.8485247,7.810571 5.446503,7.8461894 5.5182604,8.0361539 5.6378561,8.3448463 5.0518373,8.6297932 4.5734546,8.5110653 4.2266272,8.4279558 4.2027081,8.1667546 4.5136568,7.9886628 Z"
       id="path23-5-8"
       style="fill:#567d38;fill-opacity:0.992157;stroke:none;stroke-width:0.0119161" />
    <path
       d="M 4.4897377,11.111205 C 4.9083225,10.944986 5.3029882,11.906682 5.0039991,12.381593 4.9202821,12.524067 4.8485247,12.512194 4.5973738,12.262865 4.2266272,11.930427 4.1668294,11.229933 4.4897377,11.111205 Z"
       id="path24-6-5"
       style="fill:#739345;fill-opacity:1;stroke:none;stroke-width:0.0119161" />
    <path
       d="m 5.0039991,12.832759 c 0.4185848,-0.403675 0.6458166,-0.391802 0.6936548,0.05936 0.047838,0.356184 -0.5262209,1.032932 -0.8610888,1.032932 -0.3468274,0 -0.2391913,-0.688621 0.167434,-1.092296 z"
       id="path25-3-8"
       style="fill:#567d35;fill-opacity:0.992157;stroke:none;stroke-width:0.0119161" />
    <path
       d="m 5.0996756,3.5957324 c 0.3109487,0 0.6218975,0.1780917 0.6218975,0.3680563 0,0.166219 -0.3707466,0.2137101 -0.6577762,0.08311 C 4.6571716,3.8688064 4.6810908,3.5957324 5.0996756,3.5957324 Z"
       id="path26-4-9"
       style="fill:#567d37;fill-opacity:0.992157;stroke:none;stroke-width:0.0119161" />
    <path
       d="M 5.3388669,9.3659059 C 5.7694113,9.2590508 6.2717132,9.4490154 6.4391471,9.7695805 6.606581,10.0664 6.5946215,10.090146 6.1999558,10.173255 5.8411687,10.256365 5.3986648,10.054527 5.1594734,9.6864711 5.0039991,9.4490154 5.0159586,9.4252698 5.3388669,9.3659059 Z"
       id="path27-0-6"
       style="fill:#567d36;fill-opacity:0.992157;stroke:none;stroke-width:0.0119161" />
    <path
       d="m 5.5182604,5.1391944 c 0.2750701,0 0.5620997,0.2018373 0.5620997,0.3799291 0,0.1424734 -0.5381805,0.1068551 -0.6936549,-0.047491 C 5.171433,5.2579222 5.2192713,5.1391944 5.5182604,5.1391944 Z"
       id="path28-6-0"
       style="fill:#567d36;fill-opacity:0.992157;stroke:none;stroke-width:0.0119161" />
    <path
       d="m 5.5421796,6.5164375 c 0.358787,-0.3918019 1.2557545,-0.4630387 1.2557545,-0.094982 0,0.439293 -0.6936549,0.8073494 -1.243795,0.6648759 C 5.171433,6.9913489 5.171433,6.9201121 5.5421796,6.5164375 Z"
       id="path29-0-4"
       style="fill:#567d36;fill-opacity:0.992157;stroke:none;stroke-width:0.0119161" />
    <path
       d="M 5.6258965,1.2805393 C 5.9488049,1.3755216 6.3434706,1.791069 6.2836727,1.9691608 6.1999558,2.2184893 5.9607644,2.1828709 5.6617752,1.8860513 5.2790691,1.5061222 5.25515,1.1736842 5.6258965,1.2805393 Z"
       id="path30-4-2"
       style="fill:#739345;fill-opacity:1;stroke:none;stroke-width:0.0119161" />
    <path
       d="m 5.446503,11.467389 c 0.059798,-0.29682 0.5620997,-0.747986 0.8371697,-0.747986 0.2511509,0 0.3229083,0.320566 0.1554744,0.72424 -0.2272318,0.546148 -1.1122397,0.902332 -1.0644015,0.42742 0.01196,-0.08311 0.047838,-0.261201 0.071757,-0.403674 z"
       id="path31-0-3"
       style="fill:#95b455;fill-opacity:1;stroke:none;stroke-width:0.0119161" />
    <path
       d="M 5.7454922,2.5984184 C 6.0803601,2.3609627 6.6783384,2.3609627 6.9892872,2.5865456 7.216519,2.7646374 7.216519,2.7646374 6.9294893,3.0020931 6.6305002,3.2632944 6.0803601,3.3107855 5.7096135,3.120821 5.4106243,2.954602 5.4225839,2.8240013 5.7454922,2.5984184 Z"
       id="path32-5-3"
       style="fill:#95b455;fill-opacity:1;stroke:none;stroke-width:0.0119161" />
    <path
       d="M 5.7454922,8.4042103 C 6.056441,8.2854824 6.3673897,8.3804647 6.415228,8.6179204 6.4630662,8.8672489 6.1042792,8.8909945 5.7694113,8.6535388 5.5660987,8.4991926 5.5541391,8.475447 5.7454922,8.4042103 Z"
       id="path33-6-7"
       style="fill:#739345;fill-opacity:1;stroke:none;stroke-width:0.0119161" />
    <path
       d="m 6.0684005,4.4268273 c 0.4185849,0 0.9687249,0.4155475 0.9687249,0.7242399 0,0.3561835 -0.55014,0.2849468 -0.9687249,-0.1187279 -0.442504,-0.439293 -0.442504,-0.605512 0,-0.605512 z"
       id="path34-8-0"
       style="fill:#95b455;fill-opacity:1;stroke:none;stroke-width:0.0119161" />
    <path
       d="M 6.0923197,13.521381 C 6.3673897,13.165197 6.5348236,13.129579 6.6305002,13.39078 6.8098937,13.830073 6.1760366,14.613677 5.9368453,14.257493 5.7933305,14.020038 5.8172496,13.865691 6.0923197,13.521381 Z"
       id="path35-5-0"
       style="fill:#739345;fill-opacity:1;stroke:none;stroke-width:0.0119161" />
    <path
       d="M 6.1879962,0.29509812 C 6.3434706,0.03389685 7.0132063,0.67502724 7.1088829,1.1736842 7.2045594,1.6604684 7.049085,1.8741785 6.690298,1.7554507 6.2358345,1.6129773 5.9248857,0.69877281 6.1879962,0.29509812 Z"
       id="path36-3-1"
       style="fill:#567d39;fill-opacity:0.992157;stroke:none;stroke-width:0.0119161" />
    <path
       d="m 6.3793493,12.001664 c 0.2152722,-0.09498 0.3468274,-0.09498 0.4305444,-0.01187 0.2033126,0.201838 0.011959,0.391802 -0.3827062,0.391802 -0.4305444,0 -0.4544635,-0.189964 -0.047838,-0.379929 z"
       id="path37-7-0"
       style="fill:#739345;fill-opacity:1;stroke:none;stroke-width:0.0119161" />
    <path
       d="m 7.2763168,3.5957324 c 0.5262209,0 1.076361,0.4036746 1.076361,0.771731 0,0.439293 -0.801291,0.3561835 -1.2677141,-0.1424734 C 6.6544193,3.7738241 6.7142171,3.5957324 7.2763168,3.5957324 Z"
       id="path38-6-3"
       style="fill:#567d37;fill-opacity:0.992157;stroke:none;stroke-width:0.0119161" />
    <path
       d="M 6.8696915,7.1219495 C 7.0251659,6.9676033 7.4796294,7.0269672 7.6470634,7.2288046 7.766659,7.3831508 7.766659,7.4306419 7.6231442,7.5256242 7.3839529,7.6680976 7.3361146,7.6562248 7.0371254,7.4187691 6.8936106,7.3119141 6.8218532,7.1694406 6.8696915,7.1219495 Z"
       id="path39-8-0"
       style="fill:#95b455;fill-opacity:1;stroke:none;stroke-width:0.0119161" />
    <path
       d="M 6.9773276,9.1047046 C 7.2045594,9.0097223 7.5274677,9.1640685 7.6111847,9.3896514 7.6709825,9.5914888 7.0969233,9.5677432 6.9175298,9.3540331 6.7979341,9.2115597 6.8098937,9.1640685 6.9773276,9.1047046 Z"
       id="path40-6-0"
       style="fill:#739345;fill-opacity:1;stroke:none;stroke-width:0.0119161" />
    <path
       d="m 6.9175298,10.861877 c 0.1195956,-0.261202 0.8132505,-0.653003 0.9806845,-0.546148 0.3348679,0.21371 -0.442504,1.353497 -0.9089271,1.353497 -0.2152722,0 -0.2391914,-0.368056 -0.071757,-0.807349 z"
       id="path41-7-3"
       style="fill:#567d34;fill-opacity:0.992157;stroke:none;stroke-width:0.0119161" />
    <path
       d="m 6.9773276,12.88025 c 0.1913531,-0.261201 0.2152722,-0.261201 0.4185849,-0.08311 0.3229083,0.284947 0.3827061,0.712367 0.1793935,1.211024 L 7.3839529,14.447458 7.1447616,14.210002 C 6.8098937,13.877564 6.7381363,13.224561 6.9773276,12.88025 Z"
       id="path42-1-8"
       style="fill:#95b455;fill-opacity:1;stroke:none;stroke-width:0.0119161" />
    <path
       d="m 7.5035486,1.1736842 c 0.059798,-0.047491 0.27507,0.094982 0.4903422,0.2968196 0.2870296,0.2849469 0.358787,0.4630386 0.3348679,0.7361127 C 8.2809204,2.6815279 8.1134865,2.7171463 7.7188208,2.3609627 7.491589,2.1472526 7.3959125,1.9454152 7.3959125,1.6485956 c 0,-0.2255829 0.047838,-0.439293 0.1076361,-0.4749114 z"
       id="path43-8-3"
       style="fill:#95b455;fill-opacity:1;stroke:none;stroke-width:0.0119161" />
    <path
       d="m 7.491589,2.5271817 c 0.2391913,0 0.6218975,0.4036747 0.6218975,0.664876 0,0.3324379 -0.083717,0.3561835 -0.4544636,0.094982 C 7.407872,3.120821 7.2763168,2.5271817 7.491589,2.5271817 Z"
       id="path44-4-6"
       style="fill:#739345;fill-opacity:1;stroke:none;stroke-width:0.0119161" />
    <path
       d="m 7.6231442,5.9702893 c 0.3229083,-0.1662189 0.7295336,-0.1543462 0.7295336,0.035618 0,0.2493285 -0.2631105,0.439293 -0.6218975,0.439293 -0.3946657,0 -0.4544635,-0.2849468 -0.1076361,-0.474911 z"
       id="path45-9-0"
       style="fill:#95b455;fill-opacity:1;stroke:none;stroke-width:0.0119161" />
    <path
       d="m 7.6111847,12.144138 c 0.2870296,0 0.5381805,0.273074 0.4783826,0.522402 -0.023919,0.154346 -0.083717,0.166219 -0.3348678,0.03562 C 7.3839529,12.512196 7.2882764,12.14414 7.6111847,12.14414 Z"
       id="path46-7-4"
       style="fill:#739345;fill-opacity:1;stroke:none;stroke-width:0.0119161" />
    <path
       d="M 8.1134865,8.8791217 C 8.6755861,8.582302 9.3931601,8.8553761 9.0702518,9.2353052 8.8430201,9.5083793 7.7546995,9.4490154 7.7546995,9.1640685 c 0,-0.059364 0.1554743,-0.1780918 0.358787,-0.2849468 z"
       id="path51-3-0"
       style="fill:#567d35;fill-opacity:0.992157;stroke:none;stroke-width:0.0119161" />
    <path
       d="m 8.1134865,13.236434 c 0.095676,-0.225583 0.1554744,-0.249329 0.358787,-0.142474 0.1315552,0.07124 0.2870296,0.225583 0.358787,0.356184 0.1554744,0.284947 0.1554744,0.949823 0,1.187278 C 8.735384,14.791769 8.6755861,14.768023 8.4244352,14.518695 8.0776078,14.174384 7.9460525,13.640108 8.1134865,13.236434 Z"
       id="path53-1-9"
       style="fill:#567d35;fill-opacity:0.992157;stroke:none;stroke-width:0.0119161" />
    <path
       d="m 8.3287587,0.74626395 c 0.2989892,0 0.7414931,0.48678415 0.7414931,0.80734935 0,0.3680564 -0.3946657,0.332438 -0.7056144,-0.047491 C 8.0536886,1.1143203 8.0417291,0.74626395 8.3287587,0.74626395 Z"
       id="path56-0-2"
       style="fill:#739345;fill-opacity:1;stroke:none;stroke-width:0.0119161" />
    <path
       d="M 8.376597,8.1786274 C 8.6995053,8.0955179 8.9626157,8.309228 8.7234244,8.4517014 8.5440309,8.5585565 8.1134865,8.4873198 8.1134865,8.3448463 c 0,-0.047491 0.1195957,-0.1187278 0.2631105,-0.1662189 z"
       id="path57-2-4"
       style="fill:#95b455;fill-opacity:1;stroke:none;stroke-width:0.0119161" />
    <path
       d="M 8.4961926,11.574244 C 8.7234244,11.348661 8.9386966,11.408025 9.0224136,11.72859 9.1778879,12.345975 8.735384,13.034596 8.4603139,12.607176 8.3048396,12.36972 8.3287587,11.740463 8.4961926,11.574244 Z"
       id="path60-3-9"
       style="fill:#95b455;fill-opacity:1;stroke:none;stroke-width:0.0119161" />
    <path
       d="M 8.7712627,6.2433634 C 9.0224136,5.8871799 9.6323515,5.768452 9.895462,6.0296533 10.074855,6.207745 10.062896,6.2433634 9.7399876,6.5164375 9.5007963,6.7301476 9.285524,6.8013843 9.0343731,6.7776387 8.6038287,6.7301476 8.5320713,6.5876742 8.7712627,6.2433634 Z"
       id="path65-7-2"
       style="fill:#739345;fill-opacity:1;stroke:none;stroke-width:0.0119161" />
    <path
       d="M 8.9745753,2.4678178 C 9.3931601,2.5984184 9.7639067,2.9902203 9.8476237,3.3820222 9.9672194,3.8806792 9.7758663,4.0112798 9.3214027,3.7856969 8.8908583,3.560114 8.7114648,3.2632944 8.7114648,2.7646374 c 0,-0.332438 0.035879,-0.3680563 0.2631105,-0.2968196 z"
       id="path67-1-9"
       style="fill:#567d38;fill-opacity:0.992157;stroke:none;stroke-width:0.0119161" />
    <path
       d="m 8.8788988,4.5455551 c 0.2272317,0 0.5740592,0.3443108 0.4903422,0.4867842 C 9.2616049,5.1866855 9.1180901,5.16294 8.9028179,4.9492298 8.6636266,4.7236469 8.6636266,4.5455551 8.8788988,4.5455551 Z"
       id="path68-8-1"
       style="fill:#739345;fill-opacity:1;stroke:none;stroke-width:0.0119161" />
    <path
       d="m 9.1539688,10.838131 c 0.1076361,-0.308692 0.5501401,-0.712367 0.7654123,-0.712367 0.4903419,0 0.2870299,0.973568 -0.2631105,1.258515 -0.2033126,0.09498 -0.3827061,0.166219 -0.4066253,0.142474 -0.095676,-0.106855 -0.1554743,-0.534276 -0.095676,-0.688622 z"
       id="path71-9-0"
       style="fill:#567d34;fill-opacity:0.992157;stroke:none;stroke-width:0.0119161" />
    <path
       d="m 9.2018071,12.88025 c 0.1315552,-0.344311 0.358787,-0.284947 0.5620996,0.142474 0.2033127,0.403674 0.095677,0.93795 -0.1793935,0.878586 -0.27507,-0.04749 -0.5142614,-0.676749 -0.3827061,-1.02106 z"
       id="path72-3-9"
       style="fill:#739345;fill-opacity:1;stroke:none;stroke-width:0.0119161" />
    <path
       d="M 9.536675,0.61566331 C 9.7758663,0.33071648 9.7758663,0.33071648 9.9552598,0.56817217 10.290128,1.0074652 10.134653,2.0522703 9.728028,2.0522703 c -0.4305444,0 -0.5620996,-0.9854412 -0.191353,-1.43660699 z"
       id="path75-7-3"
       style="fill:#95b455;fill-opacity:1;stroke:none;stroke-width:0.0119161" />
    <path
       d="m 10.038977,12.595303 c 0.0598,-0.118727 0.203312,-0.21371 0.287029,-0.21371 0.239192,0 0.227232,0.415548 -0.01196,0.653003 -0.167434,0.154347 -0.227232,0.166219 -0.298989,0.03562 -0.1315556,-0.189965 -0.1315556,-0.225583 0.02392,-0.474913 z"
       id="path83-4-0"
       style="fill:#567d34;fill-opacity:0.992157;stroke:none;stroke-width:0.0119161" />
    <path
       d="m 10.086815,13.663854 c 0.27507,-0.486784 0.896968,-0.593639 0.896968,-0.142473 0,0.451165 -0.609938,1.116041 -1.0165636,1.116041 -0.1315553,0 -0.035879,-0.676748 0.1195956,-0.973568 z"
       id="path84-8-0"
       style="fill:#95b455;fill-opacity:1;stroke:none;stroke-width:0.0119161" />
    <path
       d="m 10.386836,1.1788043 c 0.306823,-0.44790077 0.653357,-0.50906555 0.726859,-0.50457835 0.105902,0.006466 0.158732,0.38549465 -0.130973,0.78728425 -0.306892,0.5679239 -0.608918,0.5358231 -0.66084,0.5467268 -0.03279,0.020674 -0.235261,-0.3062287 0.06495,-0.8294327 z"
       id="path90-0-3"
       style="fill:#567d3a;fill-opacity:0.99;stroke:none;stroke-width:0.0119161"
       sodipodi:nodetypes="csccc" />
    <path
       d="m 10.601076,2.2541076 c 0.28703,-0.2612012 0.382707,-0.2493284 0.382707,0.011873 0,0.2493285 -0.215273,0.498657 -0.442504,0.498657 -0.227232,0 -0.191353,-0.2849468 0.0598,-0.5105298 z"
       id="path91-4-0"
       style="fill:#739345;fill-opacity:1;stroke:none;stroke-width:0.0119161" />
    <path
       d="m 10.624996,9.5202521 c 0.191353,-0.225583 0.25115,-0.2493285 0.346827,-0.1187279 0.143515,0.2137101 0.02392,0.5936393 -0.227232,0.7242398 -0.406625,0.21371 -0.490342,-0.1780917 -0.119595,-0.6055119 z"
       id="path92-0-1"
       style="fill:#739345;fill-opacity:1;stroke:none;stroke-width:0.0119161" />
    <path
       d="m 10.469521,10.517566 c 0.08372,-0.237456 0.394666,-0.178092 0.394666,0.05936 0,0.225583 -0.215272,0.498657 -0.382706,0.498657 -0.107636,0 -0.107636,-0.320565 -0.01196,-0.558021 z"
       id="path93-5-9"
       style="fill:#95b455;fill-opacity:1;stroke:none;stroke-width:0.0119161" />
    <path
       d="m 10.959863,2.7646374 c 0.203313,-0.4036747 0.765413,-0.7836038 0.968725,-0.664876 0.179394,0.1187279 -0.07176,0.9498228 -0.358787,1.1754058 -0.298989,0.2374557 -0.82521,0.273074 -0.82521,0.059364 0,-0.083109 0.09568,-0.3443108 0.215272,-0.5698938 z"
       id="path97-7-8"
       style="fill:#95b455;fill-opacity:1;stroke:none;stroke-width:0.0119161" />
    <path
       d="m 10.971823,4.058771 0.227232,-0.2849469 0.143515,0.3561836 c 0.155474,0.4036747 0,0.8904588 -0.28703,0.8904588 -0.358787,0 -0.406625,-0.5698936 -0.08372,-0.9616955 z"
       id="path98-0-6"
       style="fill:#739345;fill-opacity:1;stroke:none;stroke-width:0.0119161" />
    <path
       d="m 11.0675,12.595303 c 0.0598,-0.261201 0.203312,-0.273074 0.394665,-0.03562 0.167434,0.201837 0.0598,0.819222 -0.119595,0.712367 -0.191354,-0.118728 -0.322909,-0.451166 -0.27507,-0.676749 z"
       id="path99-0-9"
       style="fill:#739345;fill-opacity:1;stroke:none;stroke-width:0.0119161" />
    <path
       d="m 11.462165,11.43177 c 0.08372,-0.142473 0.155475,-0.142473 0.394666,-0.01187 0.466423,0.249328 0.693655,0.914204 0.454463,1.306006 -0.203312,0.320565 -0.968724,-0.451166 -0.968724,-0.973568 0,-0.08311 0.04784,-0.225583 0.119595,-0.320566 z"
       id="path102-5-0"
       style="fill:#567d33;fill-opacity:0.992157;stroke:none;stroke-width:0.0119161" />
    <path
       d="m 11.904669,3.9637887 c 0.191353,-0.1899646 0.454464,-0.3799291 0.597979,-0.4274203 0.25115,-0.071237 0.27507,-0.035618 0.27507,0.332438 0,0.4867842 -0.478383,1.0329323 -0.908927,1.0329323 -0.406626,0 -0.382707,-0.4867842 0.03588,-0.93795 z"
       id="path105-6-1"
       style="fill:#567d39;fill-opacity:0.992157;stroke:none;stroke-width:0.0119161" />
    <path
       d="m 11.868791,5.2579222 c 0.310948,-0.106855 0.789331,-0.035618 0.789331,0.1306007 0,0.1899645 -0.55014,0.4511658 -0.813251,0.3799291 -0.346827,-0.083109 -0.334867,-0.3680563 0.02392,-0.5105298 z"
       id="path106-7-6"
       style="fill:#739345;fill-opacity:1;stroke:none;stroke-width:0.0119161" />
    <path
       d="m 11.808993,10.660039 c 0.119595,-0.07124 0.490342,0.249329 0.490342,0.427421 0,0.154346 -0.28703,0.1306 -0.454464,-0.03562 -0.167434,-0.166219 -0.179393,-0.296819 -0.03588,-0.391802 z"
       id="path107-8-4"
       style="fill:#95b455;fill-opacity:1;stroke:none;stroke-width:0.0119161" />
    <path
       d="m 12.119941,9.579616 c 0.442504,-0.1780918 1.136159,0.807349 0.932847,1.329752 -0.09568,0.261201 -0.263111,0.201837 -0.705615,-0.237456 -0.430544,-0.42742 -0.55014,-0.9735682 -0.227232,-1.092296 z"
       id="path111-0-4"
       style="fill:#739345;fill-opacity:1;stroke:none;stroke-width:0.0119161" />
  </g>
</svg>
