<?xml version="1.0" encoding="UTF-8" standalone="no"?>
<svg
   xmlns:dc="http://purl.org/dc/elements/1.1/"
   xmlns:cc="http://creativecommons.org/ns#"
   xmlns:rdf="http://www.w3.org/1999/02/22-rdf-syntax-ns#"
   xmlns:svg="http://www.w3.org/2000/svg"
   xmlns="http://www.w3.org/2000/svg"
   xmlns:xlink="http://www.w3.org/1999/xlink"
   id="svg8"
   version="1.1"
   viewBox="0 0 300 300"
   height="300mm"
   width="300mm">
  <defs
     id="defs2">
    <clipPath
       id="clipPath4935"
       clipPathUnits="userSpaceOnUse">
      <use
         transform="matrix(2.0252086,0,0,1.9938304,-279.15032,-246.26051)"
         height="100%"
         width="100%"
         id="use4937"
         xlink:href="#g4931"
         y="0"
         x="0" />
    </clipPath>
    <clipPath
       id="clipPath4935-0"
       clipPathUnits="userSpaceOnUse">
      <g
         id="use4937-3"
         transform="translate(1.071318e-6,-3.6352099e-6)">
        <path
           style="fill:#784421;stroke:#784421;stroke-width:0.21113974px;stroke-linecap:butt;stroke-linejoin:miter;stroke-opacity:1"
           d="m 208.64298,204.33755 c -0.4814,-77.10714 6.73965,-117.928569 8.66527,-150.434519 1.92561,-32.505954 0,-61.2321449 -7.70246,-83.91072 -7.70246,-22.67857 -12.51649,-29.482141 -12.51649,-29.482141 0,0 19.73754,34.017856 24.55158,53.6726201 4.81404,19.6547629 3.85123,54.4285709 3.85123,69.5476209 0,15.11905 -7.70246,68.791669 -4.33263,90.714289 3.36983,21.92261 1.92561,49.13691 1.92561,49.13691 z"
           id="path924" />
        <path
           style="fill:#784421;stroke:#784421;stroke-width:0.26458332px;stroke-linecap:butt;stroke-linejoin:miter;stroke-opacity:1"
           d="m 220.18679,115.11802 c 28.33056,-24.321519 38.21954,-29.132369 51.04848,-33.408689 12.82893,-4.27631 21.9161,-5.34539 21.9161,-5.34539 0,0 -25.92515,8.01809 -31.27054,10.69078 -5.34539,2.6727 -13.09622,5.61267 -25.65787,18.708869 -12.56167,13.09621 -18.4416,22.71791 -18.4416,22.71791 z"
           id="path926" />
        <path
           style="fill:#784421;stroke:#784421;stroke-width:0.26458332px;stroke-linecap:butt;stroke-linejoin:miter;stroke-opacity:1"
           d="m 224.04718,47.463141 c 0,0 -8.55262,-26.726953 -18.70886,-36.348653 -10.15624,-9.6216999 -33.94323,-29.399651 -33.94323,-29.399651 0,0 21.64883,19.5106791 25.92514,24.3215321 4.27632,4.8108499 12.56167,11.7598589 19.51068,28.3305729 6.94901,16.570709 7.21627,13.096199 7.21627,13.096199 z"
           id="path928" />
        <path
           style="fill:#784421;stroke:#784421;stroke-width:0.14972375px;stroke-linecap:butt;stroke-linejoin:miter;stroke-opacity:1"
           d="m 214.31471,-18.205611 c 11.81352,-18.529779 16.25584,-22.672579 22.18908,-26.805169 5.93323,-4.1326 10.30577,-5.82105 10.30577,-5.82105 0,0 -12.04413,7.95713 -14.43912,10.24213 -2.395,2.285001 -5.94879,5.007021 -10.98653,14.684431 -5.03774,9.677429 -7.09332,16.414121 -7.09332,16.414121 z"
           id="path930" />
        <path
           style="fill:#784421;stroke:#784421;stroke-width:0.24411702px;stroke-linecap:butt;stroke-linejoin:miter;stroke-opacity:1"
           d="m 220.13824,69.726641 c 0,0 7.27873,-26.73408 15.9222,-36.35834 8.64348,-9.624264 28.88742,-29.4074819 28.88742,-29.4074819 0,0 -18.42426,19.5158779 -22.06362,24.3280079 -3.63936,4.812144 -10.69062,11.762994 -16.60458,28.338124 -5.91397,16.57512 -6.14142,13.09969 -6.14142,13.09969 z"
           id="path932" />
        <path
           style="fill:#784421;stroke:#784421;stroke-width:0.26458332px;stroke-linecap:butt;stroke-linejoin:miter;stroke-opacity:1"
           d="m 220.69699,154.41149 c 2.08692,-10.2754 -3.30709,-27.44882 -11.2441,-34.72441 -7.93701,-7.27559 -23.81102,-17.52756 -32.40945,-30.755899 -8.59842,-13.22835 -12.56693,-25.79528 -12.56693,-25.79528 0,0 5.62205,28.11024 18.8504,41.007879 13.22834,12.89763 28.11023,21.82677 30.09449,30.7559 1.98425,8.92914 3.9685,21.49606 3.9685,21.49606 z"
           id="path934" />
        <path
           style="fill:#784421;stroke:#784421;stroke-width:0.26458332px;stroke-linecap:butt;stroke-linejoin:miter;stroke-opacity:1"
           d="m 222.78391,81.962861 c -13.33102,-30.73247 -27.55149,-33.37814 -39.457,-44.29153 -11.90552,-10.913383 -20.50394,-24.141729 -22.8189,-29.1023599 -2.31496,-4.960625 8.92913,21.8267709 18.51968,28.4409499 9.59055,6.61417 22.48819,16.53543 29.10237,26.45669 6.61417,9.92126 14.65385,18.49625 14.65385,18.49625 v 0"
           id="path936" />
        <path
           style="fill:#008000;stroke:#008000;stroke-width:0.18342037px;stroke-linecap:butt;stroke-linejoin:miter;stroke-opacity:1"
           d="m 177.65048,-13.301313 c -3.69149,-13.697307 4.40139,-19.435365 4.40139,-19.435365 0,0 1.70376,6.66355 1.4198,10.365526 -0.28396,3.701978 -3.26555,8.51454 -5.82119,9.069839 z"
           id="path938" />
        <path
           style="fill:#008000;stroke:#008000;stroke-width:0.18342037px;stroke-linecap:butt;stroke-linejoin:miter;stroke-opacity:1"
           d="m 165.48648,16.526884 c -3.69149,-13.69731 4.40138,-19.4353629 4.40138,-19.4353629 0,0 1.70377,6.663555 1.41981,10.365523 -0.28396,3.7019809 -3.26555,8.5145399 -5.82119,9.0698399 z"
           id="path940" />
        <path
           style="fill:#008000;stroke:#008000;stroke-width:0.18342037px;stroke-linecap:butt;stroke-linejoin:miter;stroke-opacity:1"
           d="m 166.73565,71.089911 c -3.69148,-13.69731 4.40139,-19.43537 4.40139,-19.43537 0,0 1.70376,6.66356 1.4198,10.36553 -0.28396,3.70198 -3.26554,8.51454 -5.82119,9.06984 z"
           id="path942" />
        <path
           style="fill:#008000;stroke:#008000;stroke-width:0.18342037px;stroke-linecap:butt;stroke-linejoin:miter;stroke-opacity:1"
           d="m 187.73986,71.213681 c -1.21588,14.13383 -10.78322,16.75793 -10.78322,16.75793 0,0 0.67805,-6.84441 2.21103,-10.22602 1.53299,-3.38158 5.98076,-6.88416 8.57219,-6.53191 z"
           id="path944" />
        <path
           style="fill:#008000;stroke:#008000;stroke-width:0.18342037px;stroke-linecap:butt;stroke-linejoin:miter;stroke-opacity:1"
           d="m 241.7732,-47.499785 c 14.13023,-1.256906 18.37584,7.709411 18.37584,7.709411 0,0 -6.85818,0.520768 -10.45461,-0.401715 -3.5964,-0.922487 -7.81812,-4.69447 -7.92123,-7.307696 z"
           id="path946" />
        <path
           style="fill:#008000;stroke:#008000;stroke-width:0.18342037px;stroke-linecap:butt;stroke-linejoin:miter;stroke-opacity:1"
           d="m 208.28875,-9.896818 c 3.69149,13.6973121 -4.40137,19.4353841 -4.40137,19.4353841 0,0 -1.70377,-6.66355 -1.41981,-10.365534 0.28397,-3.70196 3.26555,-8.5145351 5.82118,-9.0698501 z"
           id="path948" />
        <path
           style="fill:#008000;stroke:#008000;stroke-width:0.18342037px;stroke-linecap:butt;stroke-linejoin:miter;stroke-opacity:1"
           d="m 256.00072,12.741231 c 14.13023,-1.256906 18.37584,7.709413 18.37584,7.709413 0,0 -6.85818,0.520766 -10.45461,-0.401717 -3.5964,-0.922486 -7.81812,-4.69447 -7.92123,-7.307696 z"
           id="path950" />
        <path
           style="fill:#008000;stroke:#008000;stroke-width:0.18342037px;stroke-linecap:butt;stroke-linejoin:miter;stroke-opacity:1"
           d="m 277.74843,81.550511 c 14.13023,-1.25691 18.37584,7.70941 18.37584,7.70941 0,0 -6.85818,0.52077 -10.45461,-0.40171 -3.5964,-0.92249 -7.81812,-4.69447 -7.92123,-7.3077 z"
           id="path952" />
        <path
           style="fill:#008000;stroke:#008000;stroke-width:0.18342037px;stroke-linecap:butt;stroke-linejoin:miter;stroke-opacity:1"
           d="m 277.28611,79.519571 c 13.70796,-3.65173 14.63086,-13.52941 14.63086,-13.52941 0,0 -6.6227,1.85627 -9.68672,3.95318 -3.06401,2.0969 -5.74103,7.08531 -4.94414,9.57623 z"
           id="path954" />
        <path
           style="fill:#008000;stroke:#008000;stroke-width:0.18342037px;stroke-linecap:butt;stroke-linejoin:miter;stroke-opacity:1"
           d="m 256.00072,12.741231 c 8.15362,-11.608681 2.51136,-19.7686399 2.51136,-19.7686399 0,0 -3.88009,5.678974 -4.87939,9.2548049 -0.99932,3.5758271 0.15646,9.117933 2.36803,10.513835 z"
           id="path956" />
        <path
           style="fill:#008000;stroke:#008000;stroke-width:0.18342037px;stroke-linecap:butt;stroke-linejoin:miter;stroke-opacity:1"
           d="m 241.3932,-48.172093 c 11.63231,-8.11989 9.12119,-17.71751 9.12119,-17.71751 0,0 -5.58842,4.009421 -7.75046,7.027826 -2.16206,3.018388 -2.97149,8.621563 -1.37073,10.689684 z"
           id="path958" />
        <path
           style="fill:#008000;stroke:#008000;stroke-width:0.18342037px;stroke-linecap:butt;stroke-linejoin:miter;stroke-opacity:1"
           d="m 157.23455,-11.771706 c 12.84819,6.0139181 19.90439,-0.959607 19.90439,-0.959607 0,0 -6.26646,-2.834992 -9.9615,-3.198188 -3.69505,-0.363193 -8.95225,1.737403 -9.94289,4.157795 z"
           id="path960" />
        <path
           style="fill:#008000;stroke:#008000;stroke-width:0.18342037px;stroke-linecap:butt;stroke-linejoin:miter;stroke-opacity:1"
           d="m 182.63837,12.368941 c 12.84819,6.013918 19.90439,-0.959604 19.90439,-0.959604 0,0 -6.26646,-2.8349919 -9.96151,-3.1981879 -3.69504,-0.363197 -8.95223,1.737402 -9.94288,4.1577919 z"
           id="path962" />
        <path
           style="fill:#008000;stroke:#008000;stroke-width:0.18342037px;stroke-linecap:butt;stroke-linejoin:miter;stroke-opacity:1"
           d="m 147.70344,65.183941 c 10.01647,10.04558 19.03221,5.90597 19.03221,5.90597 0,0 -4.91892,-4.80728 -8.2669,-6.41236 -3.34799,-1.60506 -9.00658,-1.42921 -10.76531,0.50639 z"
           id="path964" />
        <path
           style="fill:#008000;stroke:#008000;stroke-width:0.18342037px;stroke-linecap:butt;stroke-linejoin:miter;stroke-opacity:1"
           d="m 152.91978,87.594331 c 11.60869,8.15362 19.76863,2.51133 19.76863,2.51133 0,0 -5.67897,-3.88008 -9.25481,-4.8794 -3.57584,-0.99931 -9.11793,0.15647 -10.51382,2.36807 z"
           id="path966" />
        <path
           style="fill:#008000;stroke:#008000;stroke-width:0.18342037px;stroke-linecap:butt;stroke-linejoin:miter;stroke-opacity:1"
           d="m 144.60707,14.629398 c 11.6087,8.15362 19.76864,2.511335 19.76864,2.511335 0,0 -5.67897,-3.880083 -9.25481,-4.879398 -3.57584,-0.999316 -9.11793,0.156466 -10.51383,2.368063 z"
           id="path968" />
        <path
           style="fill:#008000;stroke:#008000;stroke-width:0.18342037px;stroke-linecap:butt;stroke-linejoin:miter;stroke-opacity:1"
           d="m 246.34076,96.601621 c 13.6973,-3.6915 19.4354,4.401359 19.4354,4.401359 0,0 -6.66356,1.70377 -10.36555,1.41981 -3.70194,-0.28396 -8.51452,-3.265539 -9.06985,-5.821169 z"
           id="path970" />
        <path
           style="fill:#008000;stroke:#008000;stroke-width:0.18342037px;stroke-linecap:butt;stroke-linejoin:miter;stroke-opacity:1"
           d="m 245.09488,94.984841 c 11.6323,-8.11991 9.12118,-17.71753 9.12118,-17.71753 0,0 -5.58843,4.00942 -7.75047,7.02782 -2.16204,3.0184 -2.97148,8.62156 -1.37071,10.68971 z"
           id="path972" />
      </g>
    </clipPath>
  </defs>
  <metadata
     id="metadata5">
    <rdf:RDF>
      <cc:Work
         rdf:about="">
        <dc:format>image/svg+xml</dc:format>
        <dc:type
           rdf:resource="http://purl.org/dc/dcmitype/StillImage" />
        <dc:title></dc:title>
      </cc:Work>
    </rdf:RDF>
  </metadata>
  <g
     transform="translate(0,3)"
     id="layer1">
    <path
       id="path3715"
       d="m 85.142772,283.85472 c -0.4814,-77.10715 6.73965,-117.92858 8.66527,-150.43453 1.92561,-32.50595 0,-61.232142 -7.70246,-83.910715 -7.70246,-22.678571 -12.51649,-29.482142 -12.51649,-29.482142 0,0 19.73754,34.017857 24.55158,53.672618 4.814038,19.654763 3.851228,54.428569 3.851228,69.547619 0,15.11905 -7.702458,68.79167 -4.332628,90.71429 3.369828,21.92261 1.92561,49.1369 1.92561,49.1369 z"
       style="fill:#784421;stroke:#784421;stroke-width:0.21113972px;stroke-linecap:butt;stroke-linejoin:miter;stroke-opacity:1" />
    <path
       id="path4524"
       d="m 96.686582,194.63518 c 28.330558,-24.32152 38.219538,-29.13237 51.048478,-33.40869 12.82893,-4.27631 21.9161,-5.34539 21.9161,-5.34539 0,0 -25.92515,8.01809 -31.27054,10.69078 -5.34539,2.6727 -13.09621,5.61267 -25.65787,18.70887 -12.56167,13.09621 -18.441598,22.71791 -18.441598,22.71791 z"
       style="fill:#784421;stroke:#784421;stroke-width:0.26458332px;stroke-linecap:butt;stroke-linejoin:miter;stroke-opacity:1" />
    <path
       id="path4526"
       d="m 100.54697,126.9803 c 0,0 -8.552618,-26.72695 -18.708858,-36.34865 C 71.681872,81.00995 47.894882,61.232 47.894882,61.232 c 0,0 21.64883,19.51068 25.92514,24.32153 4.27632,4.81085 12.56167,11.75986 19.51068,28.33057 6.949008,16.57071 7.216268,13.0962 7.216268,13.0962 z"
       style="fill:#784421;stroke:#784421;stroke-width:0.26458332px;stroke-linecap:butt;stroke-linejoin:miter;stroke-opacity:1" />
    <path
       id="path4524-3"
       d="m 90.814502,61.311553 c 11.813518,-18.52978 16.255838,-22.67258 22.189078,-26.80517 5.93323,-4.1326 10.30577,-5.82105 10.30577,-5.82105 0,0 -12.04413,7.95713 -14.43912,10.24213 -2.395,2.285 -5.94879,5.00702 -10.986528,14.68443 -5.03774,9.67743 -7.09332,16.41412 -7.09332,16.41412 z"
       style="fill:#784421;stroke:#784421;stroke-width:0.14972375px;stroke-linecap:butt;stroke-linejoin:miter;stroke-opacity:1" />
    <path
       id="path4526-6"
       d="m 96.638032,149.2438 c 0,0 7.278728,-26.73408 15.922198,-36.35834 8.64348,-9.62426 28.88742,-29.40748 28.88742,-29.40748 0,0 -18.42426,19.51588 -22.06362,24.32801 -3.63936,4.81214 -10.69062,11.76299 -16.60458,28.33812 -5.913968,16.57512 -6.141418,13.09969 -6.141418,13.09969 z"
       style="fill:#784421;stroke:#784421;stroke-width:0.24411702px;stroke-linecap:butt;stroke-linejoin:miter;stroke-opacity:1" />
    <path
       id="path4558"
       d="m 97.196782,233.92865 c 2.08692,-10.2754 -3.30709,-27.44882 -11.2441,-34.72441 -7.93701,-7.27559 -23.811023,-17.52756 -32.409447,-30.7559 -8.598426,-13.22835 -12.56693,-25.79528 -12.56693,-25.79528 0,0 5.622047,28.11024 18.850393,41.00788 13.228344,12.89763 28.110234,21.82677 30.094494,30.7559 1.98425,8.92914 3.9685,21.49606 3.9685,21.49606 z"
       style="fill:#784421;stroke:#784421;stroke-width:0.26458332px;stroke-linecap:butt;stroke-linejoin:miter;stroke-opacity:1" />
    <path
       id="path4560"
       d="M 99.283702,161.48002 C 85.952682,130.74755 71.732212,128.10188 59.826698,117.18849 47.921186,106.27511 39.322762,93.046765 37.007801,88.086134 34.69284,83.125507 45.936936,109.9129 55.527486,116.52708 c 9.59055,6.61417 22.488186,16.53543 29.102366,26.45669 6.61417,9.92126 14.65385,18.49625 14.65385,18.49625 v 0"
       style="fill:#784421;stroke:#784421;stroke-width:0.26458332px;stroke-linecap:butt;stroke-linejoin:miter;stroke-opacity:1" />
    <path
       id="path4564"
       d="m 54.150271,66.21585 c -3.691488,-13.697308 4.401388,-19.435366 4.401388,-19.435366 0,0 1.703762,6.663551 1.419802,10.365526 -0.28396,3.70198 -3.265546,8.51454 -5.82119,9.06984 z"
       style="fill:#008000;stroke:#008000;stroke-width:0.18342037px;stroke-linecap:butt;stroke-linejoin:miter;stroke-opacity:1" />
    <path
       id="path4564-7"
       d="m 41.986269,96.044047 c -3.691488,-13.69731 4.401388,-19.435365 4.401388,-19.435365 0,0 1.703762,6.663555 1.419802,10.365525 -0.28396,3.70198 -3.265546,8.51454 -5.82119,9.06984 z"
       style="fill:#008000;stroke:#008000;stroke-width:0.18342037px;stroke-linecap:butt;stroke-linejoin:miter;stroke-opacity:1" />
    <path
       id="path4564-5"
       d="m 43.235446,150.60707 c -3.691488,-13.69731 4.401388,-19.43537 4.401388,-19.43537 0,0 1.703762,6.66356 1.419802,10.36553 -0.28396,3.70198 -3.265546,8.51454 -5.82119,9.06984 z"
       style="fill:#008000;stroke:#008000;stroke-width:0.18342037px;stroke-linecap:butt;stroke-linejoin:miter;stroke-opacity:1" />
    <path
       id="path4564-3"
       d="m 64.239651,150.73084 c -1.215878,14.13383 -10.78322,16.75793 -10.78322,16.75793 0,0 0.678048,-6.84441 2.211033,-10.22602 1.532985,-3.38158 5.980756,-6.88416 8.572187,-6.53191 z"
       style="fill:#008000;stroke:#008000;stroke-width:0.18342037px;stroke-linecap:butt;stroke-linejoin:miter;stroke-opacity:1" />
    <path
       id="path4564-3-5"
       d="m 118.27299,32.017378 c 14.13023,-1.256906 18.37584,7.709411 18.37584,7.709411 0,0 -6.85818,0.520768 -10.45461,-0.401715 -3.5964,-0.922487 -7.81812,-4.69447 -7.92123,-7.307696 z"
       style="fill:#008000;stroke:#008000;stroke-width:0.18342037px;stroke-linecap:butt;stroke-linejoin:miter;stroke-opacity:1" />
    <path
       id="path4564-3-6"
       d="m 84.788542,69.620344 c 3.69149,13.697313 -4.40137,19.435383 -4.40137,19.435383 0,0 -1.70377,-6.663548 -1.41981,-10.365532 0.28397,-3.70196 3.26555,-8.514536 5.82118,-9.069851 z"
       style="fill:#008000;stroke:#008000;stroke-width:0.18342037px;stroke-linecap:butt;stroke-linejoin:miter;stroke-opacity:1" />
    <path
       id="path4564-3-5-2"
       d="m 132.50051,92.258394 c 14.13023,-1.256906 18.37584,7.709411 18.37584,7.709411 0,0 -6.85818,0.520765 -10.45461,-0.401715 -3.5964,-0.922487 -7.81812,-4.69447 -7.92123,-7.307696 z"
       style="fill:#008000;stroke:#008000;stroke-width:0.18342037px;stroke-linecap:butt;stroke-linejoin:miter;stroke-opacity:1" />
    <path
       id="path4564-3-5-9"
       d="m 154.24822,161.06767 c 14.13023,-1.25691 18.37584,7.70941 18.37584,7.70941 0,0 -6.85818,0.52077 -10.45461,-0.40171 -3.5964,-0.92249 -7.81812,-4.69447 -7.92123,-7.3077 z"
       style="fill:#008000;stroke:#008000;stroke-width:0.18342037px;stroke-linecap:butt;stroke-linejoin:miter;stroke-opacity:1" />
    <path
       id="path4564-3-5-1"
       d="m 153.7859,159.03673 c 13.70796,-3.65173 14.63086,-13.52941 14.63086,-13.52941 0,0 -6.6227,1.85627 -9.68672,3.95318 -3.06401,2.0969 -5.74103,7.08531 -4.94414,9.57623 z"
       style="fill:#008000;stroke:#008000;stroke-width:0.18342037px;stroke-linecap:butt;stroke-linejoin:miter;stroke-opacity:1" />
    <path
       id="path4564-3-5-2-7"
       d="m 132.50051,92.258394 c 8.15362,-11.608682 2.51136,-19.76864 2.51136,-19.76864 0,0 -3.88009,5.678974 -4.87939,9.254805 -0.99932,3.575827 0.15646,9.117932 2.36803,10.513835 z"
       style="fill:#008000;stroke:#008000;stroke-width:0.18342037px;stroke-linecap:butt;stroke-linejoin:miter;stroke-opacity:1" />
    <path
       id="path4564-3-5-2-7-0"
       d="m 117.89299,31.34507 c 11.63231,-8.11989 9.12119,-17.717509 9.12119,-17.717509 0,0 -5.58842,4.009421 -7.75046,7.027825 -2.16206,3.018388 -2.97149,8.621563 -1.37073,10.689684 z"
       style="fill:#008000;stroke:#008000;stroke-width:0.18342037px;stroke-linecap:butt;stroke-linejoin:miter;stroke-opacity:1" />
    <path
       id="path4564-9"
       d="m 33.73434,67.745456 c 12.848195,6.013918 19.904392,-0.959605 19.904392,-0.959605 0,0 -6.26646,-2.834992 -9.961504,-3.198188 -3.695048,-0.363195 -8.952241,1.737402 -9.942888,4.157793 z"
       style="fill:#008000;stroke:#008000;stroke-width:0.18342037px;stroke-linecap:butt;stroke-linejoin:miter;stroke-opacity:1" />
    <path
       id="path4564-9-3"
       d="m 59.138163,91.886103 c 12.848189,6.013919 19.904389,-0.959605 19.904389,-0.959605 0,0 -6.26646,-2.834991 -9.961506,-3.198187 -3.695044,-0.363196 -8.952236,1.737402 -9.942883,4.157792 z"
       style="fill:#008000;stroke:#008000;stroke-width:0.18342037px;stroke-linecap:butt;stroke-linejoin:miter;stroke-opacity:1" />
    <path
       id="path4564-9-3-6"
       d="m 24.203231,144.7011 c 10.016473,10.04558 19.032215,5.90597 19.032215,5.90597 0,0 -4.918922,-4.80728 -8.266907,-6.41236 -3.34799,-1.60506 -9.006581,-1.42921 -10.765308,0.50639 z"
       style="fill:#008000;stroke:#008000;stroke-width:0.18342037px;stroke-linecap:butt;stroke-linejoin:miter;stroke-opacity:1" />
    <path
       id="path4564-9-3-6-0"
       d="m 29.419568,167.11149 c 11.608697,8.15362 19.768634,2.51133 19.768634,2.51133 0,0 -5.678967,-3.88008 -9.254807,-4.8794 -3.575845,-0.99931 -9.117933,0.15647 -10.513827,2.36807 z"
       style="fill:#008000;stroke:#008000;stroke-width:0.18342037px;stroke-linecap:butt;stroke-linejoin:miter;stroke-opacity:1" />
    <path
       id="path4564-9-3-62"
       d="m 21.106866,94.146559 c 11.608696,8.153621 19.768633,2.511335 19.768633,2.511335 0,0 -5.678967,-3.880081 -9.254807,-4.879397 -3.575844,-0.999316 -9.117933,0.156467 -10.513826,2.368062 z"
       style="fill:#008000;stroke:#008000;stroke-width:0.18342037px;stroke-linecap:butt;stroke-linejoin:miter;stroke-opacity:1" />
    <path
       id="path4564-3-5-9-6"
       d="m 122.84055,176.11878 c 13.6973,-3.6915 19.4354,4.40136 19.4354,4.40136 0,0 -6.66356,1.70377 -10.36554,1.41981 -3.70195,-0.28396 -8.51453,-3.26554 -9.06986,-5.82117 z"
       style="fill:#008000;stroke:#008000;stroke-width:0.18342037px;stroke-linecap:butt;stroke-linejoin:miter;stroke-opacity:1" />
    <path
       id="path4564-3-5-1-1"
       d="m 121.59467,174.502 c 11.6323,-8.11991 9.12118,-17.71753 9.12118,-17.71753 0,0 -5.58842,4.00942 -7.75047,7.02782 -2.16204,3.0184 -2.97148,8.62156 -1.37071,10.68971 z"
       style="fill:#008000;stroke:#008000;stroke-width:0.18342037px;stroke-linecap:butt;stroke-linejoin:miter;stroke-opacity:1" />
    <g
       style="opacity:0.842"
       transform="matrix(0.49377629,0,0,0.50154717,137.83781,123.51126)"
       id="g4931">
      <path
         id="path3715-8"
         d="m 208.64298,204.33755 c -0.4814,-77.10714 6.73965,-117.928569 8.66527,-150.434519 1.92561,-32.505954 0,-61.2321449 -7.70246,-83.91072 -7.70246,-22.67857 -12.51649,-29.482141 -12.51649,-29.482141 0,0 19.73754,34.017856 24.55158,53.6726201 4.81404,19.6547629 3.85123,54.4285709 3.85123,69.5476209 0,15.11905 -7.70246,68.791669 -4.33263,90.714289 3.36983,21.92261 1.92561,49.13691 1.92561,49.13691 z"
         style="fill:#784421;stroke:#784421;stroke-width:0.21113974px;stroke-linecap:butt;stroke-linejoin:miter;stroke-opacity:1" />
      <path
         id="path4524-7"
         d="m 220.18679,115.11802 c 28.33056,-24.321519 38.21954,-29.132369 51.04848,-33.408689 12.82893,-4.27631 21.9161,-5.34539 21.9161,-5.34539 0,0 -25.92515,8.01809 -31.27054,10.69078 -5.34539,2.6727 -13.09622,5.61267 -25.65787,18.708869 -12.56167,13.09621 -18.4416,22.71791 -18.4416,22.71791 z"
         style="fill:#784421;stroke:#784421;stroke-width:0.26458332px;stroke-linecap:butt;stroke-linejoin:miter;stroke-opacity:1" />
      <path
         id="path4526-9"
         d="m 224.04718,47.463141 c 0,0 -8.55262,-26.726953 -18.70886,-36.348653 -10.15624,-9.6216999 -33.94323,-29.399651 -33.94323,-29.399651 0,0 21.64883,19.5106791 25.92514,24.3215321 4.27632,4.8108499 12.56167,11.7598589 19.51068,28.3305729 6.94901,16.570709 7.21627,13.096199 7.21627,13.096199 z"
         style="fill:#784421;stroke:#784421;stroke-width:0.26458332px;stroke-linecap:butt;stroke-linejoin:miter;stroke-opacity:1" />
      <path
         id="path4524-3-2"
         d="m 214.31471,-18.205611 c 11.81352,-18.529779 16.25584,-22.672579 22.18908,-26.805169 5.93323,-4.1326 10.30577,-5.82105 10.30577,-5.82105 0,0 -12.04413,7.95713 -14.43912,10.24213 -2.395,2.285001 -5.94879,5.007021 -10.98653,14.684431 -5.03774,9.677429 -7.09332,16.414121 -7.09332,16.414121 z"
         style="fill:#784421;stroke:#784421;stroke-width:0.14972375px;stroke-linecap:butt;stroke-linejoin:miter;stroke-opacity:1" />
      <path
         id="path4526-6-0"
         d="m 220.13824,69.726641 c 0,0 7.27873,-26.73408 15.9222,-36.35834 8.64348,-9.624264 28.88742,-29.4074819 28.88742,-29.4074819 0,0 -18.42426,19.5158779 -22.06362,24.3280079 -3.63936,4.812144 -10.69062,11.762994 -16.60458,28.338124 -5.91397,16.57512 -6.14142,13.09969 -6.14142,13.09969 z"
         style="fill:#784421;stroke:#784421;stroke-width:0.24411702px;stroke-linecap:butt;stroke-linejoin:miter;stroke-opacity:1" />
      <path
         id="path4558-2"
         d="m 220.69699,154.41149 c 2.08692,-10.2754 -3.30709,-27.44882 -11.2441,-34.72441 -7.93701,-7.27559 -23.81102,-17.52756 -32.40945,-30.755899 -8.59842,-13.22835 -12.56693,-25.79528 -12.56693,-25.79528 0,0 5.62205,28.11024 18.8504,41.007879 13.22834,12.89763 28.11023,21.82677 30.09449,30.7559 1.98425,8.92914 3.9685,21.49606 3.9685,21.49606 z"
         style="fill:#784421;stroke:#784421;stroke-width:0.26458332px;stroke-linecap:butt;stroke-linejoin:miter;stroke-opacity:1" />
      <path
         id="path4560-3"
         d="m 222.78391,81.962861 c -13.33102,-30.73247 -27.55149,-33.37814 -39.457,-44.29153 -11.90552,-10.913383 -20.50394,-24.141729 -22.8189,-29.1023599 -2.31496,-4.960625 8.92913,21.8267709 18.51968,28.4409499 9.59055,6.61417 22.48819,16.53543 29.10237,26.45669 6.61417,9.92126 14.65385,18.49625 14.65385,18.49625 v 0"
         style="fill:#784421;stroke:#784421;stroke-width:0.26458332px;stroke-linecap:butt;stroke-linejoin:miter;stroke-opacity:1" />
      <path
         id="path4564-75"
         d="m 177.65048,-13.301313 c -3.69149,-13.697307 4.40139,-19.435365 4.40139,-19.435365 0,0 1.70376,6.66355 1.4198,10.365526 -0.28396,3.701978 -3.26555,8.51454 -5.82119,9.069839 z"
         style="fill:#008000;stroke:#008000;stroke-width:0.18342037px;stroke-linecap:butt;stroke-linejoin:miter;stroke-opacity:1" />
      <path
         id="path4564-7-9"
         d="m 165.48648,16.526884 c -3.69149,-13.69731 4.40138,-19.4353629 4.40138,-19.4353629 0,0 1.70377,6.663555 1.41981,10.365523 -0.28396,3.7019809 -3.26555,8.5145399 -5.82119,9.0698399 z"
         style="fill:#008000;stroke:#008000;stroke-width:0.18342037px;stroke-linecap:butt;stroke-linejoin:miter;stroke-opacity:1" />
      <path
         id="path4564-5-2"
         d="m 166.73565,71.089911 c -3.69148,-13.69731 4.40139,-19.43537 4.40139,-19.43537 0,0 1.70376,6.66356 1.4198,10.36553 -0.28396,3.70198 -3.26554,8.51454 -5.82119,9.06984 z"
         style="fill:#008000;stroke:#008000;stroke-width:0.18342037px;stroke-linecap:butt;stroke-linejoin:miter;stroke-opacity:1" />
      <path
         id="path4564-3-2"
         d="m 187.73986,71.213681 c -1.21588,14.13383 -10.78322,16.75793 -10.78322,16.75793 0,0 0.67805,-6.84441 2.21103,-10.22602 1.53299,-3.38158 5.98076,-6.88416 8.57219,-6.53191 z"
         style="fill:#008000;stroke:#008000;stroke-width:0.18342037px;stroke-linecap:butt;stroke-linejoin:miter;stroke-opacity:1" />
      <path
         id="path4564-3-5-8"
         d="m 241.7732,-47.499785 c 14.13023,-1.256906 18.37584,7.709411 18.37584,7.709411 0,0 -6.85818,0.520768 -10.45461,-0.401715 -3.5964,-0.922487 -7.81812,-4.69447 -7.92123,-7.307696 z"
         style="fill:#008000;stroke:#008000;stroke-width:0.18342037px;stroke-linecap:butt;stroke-linejoin:miter;stroke-opacity:1" />
      <path
         id="path4564-3-6-9"
         d="m 208.28875,-9.896818 c 3.69149,13.6973121 -4.40137,19.4353841 -4.40137,19.4353841 0,0 -1.70377,-6.66355 -1.41981,-10.365534 0.28397,-3.70196 3.26555,-8.5145351 5.82118,-9.0698501 z"
         style="fill:#008000;stroke:#008000;stroke-width:0.18342037px;stroke-linecap:butt;stroke-linejoin:miter;stroke-opacity:1" />
      <path
         id="path4564-3-5-2-73"
         d="m 256.00072,12.741231 c 14.13023,-1.256906 18.37584,7.709413 18.37584,7.709413 0,0 -6.85818,0.520766 -10.45461,-0.401717 -3.5964,-0.922486 -7.81812,-4.69447 -7.92123,-7.307696 z"
         style="fill:#008000;stroke:#008000;stroke-width:0.18342037px;stroke-linecap:butt;stroke-linejoin:miter;stroke-opacity:1" />
      <path
         id="path4564-3-5-9-61"
         d="m 277.74843,81.550511 c 14.13023,-1.25691 18.37584,7.70941 18.37584,7.70941 0,0 -6.85818,0.52077 -10.45461,-0.40171 -3.5964,-0.92249 -7.81812,-4.69447 -7.92123,-7.3077 z"
         style="fill:#008000;stroke:#008000;stroke-width:0.18342037px;stroke-linecap:butt;stroke-linejoin:miter;stroke-opacity:1" />
      <path
         id="path4564-3-5-1-2"
         d="m 277.28611,79.519571 c 13.70796,-3.65173 14.63086,-13.52941 14.63086,-13.52941 0,0 -6.6227,1.85627 -9.68672,3.95318 -3.06401,2.0969 -5.74103,7.08531 -4.94414,9.57623 z"
         style="fill:#008000;stroke:#008000;stroke-width:0.18342037px;stroke-linecap:butt;stroke-linejoin:miter;stroke-opacity:1" />
      <path
         id="path4564-3-5-2-7-9"
         d="m 256.00072,12.741231 c 8.15362,-11.608681 2.51136,-19.7686399 2.51136,-19.7686399 0,0 -3.88009,5.678974 -4.87939,9.2548049 -0.99932,3.5758271 0.15646,9.117933 2.36803,10.513835 z"
         style="fill:#008000;stroke:#008000;stroke-width:0.18342037px;stroke-linecap:butt;stroke-linejoin:miter;stroke-opacity:1" />
      <path
         id="path4564-3-5-2-7-0-3"
         d="m 241.3932,-48.172093 c 11.63231,-8.11989 9.12119,-17.71751 9.12119,-17.71751 0,0 -5.58842,4.009421 -7.75046,7.027826 -2.16206,3.018388 -2.97149,8.621563 -1.37073,10.689684 z"
         style="fill:#008000;stroke:#008000;stroke-width:0.18342037px;stroke-linecap:butt;stroke-linejoin:miter;stroke-opacity:1" />
      <path
         id="path4564-9-1"
         d="m 157.23455,-11.771706 c 12.84819,6.0139181 19.90439,-0.959607 19.90439,-0.959607 0,0 -6.26646,-2.834992 -9.9615,-3.198188 -3.69505,-0.363193 -8.95225,1.737403 -9.94289,4.157795 z"
         style="fill:#008000;stroke:#008000;stroke-width:0.18342037px;stroke-linecap:butt;stroke-linejoin:miter;stroke-opacity:1" />
      <path
         id="path4564-9-3-9"
         d="m 182.63837,12.368941 c 12.84819,6.013918 19.90439,-0.959604 19.90439,-0.959604 0,0 -6.26646,-2.8349919 -9.96151,-3.1981879 -3.69504,-0.363197 -8.95223,1.737402 -9.94288,4.1577919 z"
         style="fill:#008000;stroke:#008000;stroke-width:0.18342037px;stroke-linecap:butt;stroke-linejoin:miter;stroke-opacity:1" />
      <path
         id="path4564-9-3-6-4"
         d="m 147.70344,65.183941 c 10.01647,10.04558 19.03221,5.90597 19.03221,5.90597 0,0 -4.91892,-4.80728 -8.2669,-6.41236 -3.34799,-1.60506 -9.00658,-1.42921 -10.76531,0.50639 z"
         style="fill:#008000;stroke:#008000;stroke-width:0.18342037px;stroke-linecap:butt;stroke-linejoin:miter;stroke-opacity:1" />
      <path
         id="path4564-9-3-6-0-7"
         d="m 152.91978,87.594331 c 11.60869,8.15362 19.76863,2.51133 19.76863,2.51133 0,0 -5.67897,-3.88008 -9.25481,-4.8794 -3.57584,-0.99931 -9.11793,0.15647 -10.51382,2.36807 z"
         style="fill:#008000;stroke:#008000;stroke-width:0.18342037px;stroke-linecap:butt;stroke-linejoin:miter;stroke-opacity:1" />
      <path
         id="path4564-9-3-62-8"
         d="m 144.60707,14.629398 c 11.6087,8.15362 19.76864,2.511335 19.76864,2.511335 0,0 -5.67897,-3.880083 -9.25481,-4.879398 -3.57584,-0.999316 -9.11793,0.156466 -10.51383,2.368063 z"
         style="fill:#008000;stroke:#008000;stroke-width:0.18342037px;stroke-linecap:butt;stroke-linejoin:miter;stroke-opacity:1" />
      <path
         id="path4564-3-5-9-6-4"
         d="m 246.34076,96.601621 c 13.6973,-3.6915 19.4354,4.401359 19.4354,4.401359 0,0 -6.66356,1.70377 -10.36555,1.41981 -3.70194,-0.28396 -8.51452,-3.265539 -9.06985,-5.821169 z"
         style="fill:#008000;stroke:#008000;stroke-width:0.18342037px;stroke-linecap:butt;stroke-linejoin:miter;stroke-opacity:1" />
      <path
         id="path4564-3-5-1-1-5"
         d="m 245.09488,94.984841 c 11.6323,-8.11991 9.12118,-17.71753 9.12118,-17.71753 0,0 -5.58843,4.00942 -7.75047,7.02782 -2.16204,3.0184 -2.97148,8.62156 -1.37071,10.68971 z"
         style="fill:#008000;stroke:#008000;stroke-width:0.18342037px;stroke-linecap:butt;stroke-linejoin:miter;stroke-opacity:1" />
    </g>
    <path
       style="fill:#784421;stroke:#784421;stroke-width:0.06155643px;stroke-linecap:butt;stroke-linejoin:miter;stroke-opacity:1;opacity:0.777"
       d="m 188.74913,104.7287 c -0.14261,-22.124777 1.99645,-33.837895 2.56687,-43.165008 0.57042,-9.327113 0,-17.569678 -2.28166,-24.076967 -2.28167,-6.507288 -3.70771,-8.459474 -3.70771,-8.459474 0,0 5.84677,9.760931 7.27281,15.400582 1.42604,5.63965 1.14083,15.617491 1.14083,19.955684 0,4.338193 -2.28166,19.738775 -1.28343,26.029153 0.99823,6.290376 0.57041,14.09913 0.57041,14.09913 z"
       id="path3715-8-0" />
    <path
       style="fill:#784421;stroke:#784421;stroke-width:0.07713756px;stroke-linecap:butt;stroke-linejoin:miter;stroke-opacity:1;opacity:0.777"
       d="m 192.1687,79.128448 c 8.39224,-6.978708 11.3216,-8.359112 15.12187,-9.58614 3.80025,-1.227025 6.4921,-1.533782 6.4921,-1.533782 0,0 -7.67969,2.300675 -9.26313,3.067564 -1.58344,0.766893 -3.87943,1.610475 -7.60052,5.36824 -3.72108,3.757768 -5.46287,6.518576 -5.46287,6.518576 z"
       id="path4524-7-6" />
    <path
       style="fill:#784421;stroke:#784421;stroke-width:0.07713756px;stroke-linecap:butt;stroke-linejoin:miter;stroke-opacity:1;opacity:0.777"
       d="m 193.31225,59.715859 c 0,0 -2.53351,-7.668913 -5.54205,-10.42972 -3.00854,-2.760808 -10.05485,-8.435805 -10.05485,-8.435805 0,0 6.41294,5.598307 7.67969,6.978712 1.26675,1.380404 3.72109,3.374321 5.77956,8.129048 2.05848,4.754725 2.13765,3.757765 2.13765,3.757765 z"
       id="path4526-9-3" />
    <path
       style="fill:#784421;stroke:#784421;stroke-width:0.043651px;stroke-linecap:butt;stroke-linejoin:miter;stroke-opacity:1;opacity:0.777"
       d="m 190.42924,40.87316 c 3.49947,-5.316852 4.81539,-6.505569 6.57297,-7.691355 1.75758,-1.18579 3.05284,-1.670267 3.05284,-1.670267 0,0 -3.56778,2.283184 -4.27724,2.938832 -0.70946,0.655648 -1.76219,1.436692 -3.25449,4.213485 -1.49231,2.776798 -2.10123,4.709794 -2.10123,4.709794 z"
       id="path4524-3-2-2" />
    <path
       style="fill:#784421;stroke:#784421;stroke-width:0.07117075px;stroke-linecap:butt;stroke-linejoin:miter;stroke-opacity:1;opacity:0.777"
       d="m 192.15432,66.104048 c 0,0 2.15614,-7.670957 4.71656,-10.4325 2.56042,-2.761543 8.55719,-8.438051 8.55719,-8.438051 0,0 -5.45773,5.599799 -6.53581,6.98057 -1.07807,1.380775 -3.16683,3.375221 -4.9187,8.131215 -1.75187,4.755991 -1.81924,3.758766 -1.81924,3.758766 z"
       id="path4526-6-0-0" />
    <path
       style="fill:#784421;stroke:#784421;stroke-width:0.07713756px;stroke-linecap:butt;stroke-linejoin:miter;stroke-opacity:1;opacity:0.777"
       d="m 192.31983,90.403141 c 0.6182,-2.948377 -0.97964,-7.876042 -3.33079,-9.963667 -2.35114,-2.087625 -7.05343,-5.02928 -9.6005,-8.824961 -2.54708,-3.795683 -3.72265,-7.401582 -3.72265,-7.401582 0,0 1.66539,8.065827 5.58397,11.766618 3.91857,3.700788 8.32697,6.262876 8.91476,8.824961 0.58778,2.562087 1.17557,6.167983 1.17557,6.167983 z"
       id="path4558-2-6" />
    <path
       style="fill:#784421;stroke:#784421;stroke-width:0.07713756px;stroke-linecap:butt;stroke-linejoin:miter;stroke-opacity:1;opacity:0.777"
       d="m 192.93803,69.615055 c -3.94899,-8.818238 -8.16145,-9.577375 -11.68817,-12.708814 -3.52672,-3.131438 -6.07379,-6.92712 -6.75954,-8.350502 -0.68575,-1.423379 2.64504,6.262877 5.486,8.16072 2.84097,1.89784 6.66158,4.744602 8.62087,7.591364 1.95928,2.846762 4.34084,5.307232 4.34084,5.307232 v 0"
       id="path4560-3-1" />
    <path
       style="fill:#008000;stroke:#008000;stroke-width:0.05347503px;stroke-linecap:butt;stroke-linejoin:miter;stroke-opacity:1;opacity:0.777"
       d="m 179.56836,42.280378 c -1.09352,-3.930245 1.3038,-5.576697 1.3038,-5.576697 0,0 0.5047,1.912009 0.42058,2.974237 -0.0841,1.062229 -0.96734,2.443125 -1.72438,2.60246 z"
       id="path4564-75-5" />
    <path
       style="fill:#008000;stroke:#008000;stroke-width:0.05347503px;stroke-linecap:butt;stroke-linejoin:miter;stroke-opacity:1;opacity:0.777"
       d="m 175.96507,50.839147 c -1.09352,-3.930245 1.3038,-5.576696 1.3038,-5.576696 0,0 0.5047,1.912011 0.42058,2.974237 -0.0841,1.06223 -0.96734,2.443124 -1.72438,2.602459 z"
       id="path4564-7-9-5" />
    <path
       style="fill:#008000;stroke:#008000;stroke-width:0.05347503px;stroke-linecap:butt;stroke-linejoin:miter;stroke-opacity:1;opacity:0.777"
       d="m 176.3351,66.495219 c -1.09351,-3.930245 1.30381,-5.576698 1.30381,-5.576698 0,0 0.5047,1.912012 0.42058,2.974239 -0.0841,1.062229 -0.96734,2.443124 -1.72439,2.602459 z"
       id="path4564-5-2-4" />
    <path
       style="fill:#008000;stroke:#008000;stroke-width:0.05347503px;stroke-linecap:butt;stroke-linejoin:miter;stroke-opacity:1;opacity:0.777"
       d="m 182.55709,66.530733 c -0.36018,4.055498 -3.19427,4.808446 -3.19427,4.808446 0,0 0.20086,-1.963905 0.65497,-2.934209 0.45411,-0.970295 1.77165,-1.97531 2.5393,-1.874237 z"
       id="path4564-3-2-7" />
    <path
       style="fill:#008000;stroke:#008000;stroke-width:0.05347503px;stroke-linecap:butt;stroke-linejoin:miter;stroke-opacity:1;opacity:0.777"
       d="m 198.56315,32.467621 c 4.18573,-0.360651 5.44339,2.212104 5.44339,2.212104 0,0 -2.03157,0.149426 -3.09692,-0.115267 -1.06535,-0.264694 -2.31593,-1.34701 -2.34647,-2.096837 z"
       id="path4564-3-5-8-6" />
    <path
       style="fill:#008000;stroke:#008000;stroke-width:0.05347503px;stroke-linecap:butt;stroke-linejoin:miter;stroke-opacity:1;opacity:0.777"
       d="m 188.6442,43.257248 c 1.09351,3.930246 -1.3038,5.576703 -1.3038,5.576703 0,0 -0.5047,-1.91201 -0.42059,-2.97424 0.0841,-1.062224 0.96734,-2.443123 1.72439,-2.602463 z"
       id="path4564-3-6-9-5" />
    <path
       style="fill:#008000;stroke:#008000;stroke-width:0.05347503px;stroke-linecap:butt;stroke-linejoin:miter;stroke-opacity:1;opacity:0.777"
       d="m 202.7777,49.752909 c 4.18574,-0.360651 5.4434,2.212105 5.4434,2.212105 0,0 -2.03157,0.149426 -3.09693,-0.115267 -1.06534,-0.264694 -2.31592,-1.347011 -2.34647,-2.096838 z"
       id="path4564-3-5-2-73-6" />
    <path
       style="fill:#008000;stroke:#008000;stroke-width:0.05347503px;stroke-linecap:butt;stroke-linejoin:miter;stroke-opacity:1;opacity:0.777"
       d="m 209.21993,69.496737 c 4.18574,-0.360652 5.44339,2.212104 5.44339,2.212104 0,0 -2.03156,0.149427 -3.09692,-0.115265 -1.06534,-0.264695 -2.31593,-1.347011 -2.34647,-2.096839 z"
       id="path4564-3-5-9-61-9" />
    <path
       style="fill:#008000;stroke:#008000;stroke-width:0.05347503px;stroke-linecap:butt;stroke-linejoin:miter;stroke-opacity:1;opacity:0.777"
       d="m 209.08298,68.913988 c 4.06065,-1.047811 4.33403,-3.882069 4.33403,-3.882069 0,0 -1.96181,0.53263 -2.86945,1.134308 -0.90764,0.601675 -1.70064,2.033028 -1.46458,2.747761 z"
       id="path4564-3-5-1-2-3" />
    <path
       style="fill:#008000;stroke:#008000;stroke-width:0.05347503px;stroke-linecap:butt;stroke-linejoin:miter;stroke-opacity:1;opacity:0.777"
       d="m 202.7777,49.752909 c 2.41531,-3.330943 0.74393,-5.672325 0.74393,-5.672325 0,0 -1.14938,1.629499 -1.4454,2.655532 -0.29602,1.026032 0.0463,2.616259 0.70147,3.016793 z"
       id="path4564-3-5-2-7-9-7" />
    <path
       style="fill:#008000;stroke:#008000;stroke-width:0.05347503px;stroke-linecap:butt;stroke-linejoin:miter;stroke-opacity:1;opacity:0.777"
       d="m 198.45058,32.274711 c 3.44579,-2.329885 2.70193,-5.083783 2.70193,-5.083783 0,0 -1.65543,1.150446 -2.29588,2.016533 -0.64046,0.866083 -0.88024,2.473833 -0.40605,3.06725 z"
       id="path4564-3-5-2-7-0-3-4" />
    <path
       style="fill:#008000;stroke:#008000;stroke-width:0.05347503px;stroke-linecap:butt;stroke-linejoin:miter;stroke-opacity:1;opacity:0.777"
       d="m 173.52064,42.719276 c 3.80596,1.725607 5.89619,-0.275345 5.89619,-0.275345 0,0 -1.85629,-0.81346 -2.95086,-0.917674 -1.09456,-0.104213 -2.65188,0.498523 -2.94533,1.193019 z"
       id="path4564-9-1-5" />
    <path
       style="fill:#008000;stroke:#008000;stroke-width:0.05347503px;stroke-linecap:butt;stroke-linejoin:miter;stroke-opacity:1;opacity:0.777"
       d="m 181.0459,49.646086 c 3.80596,1.725607 5.89619,-0.275345 5.89619,-0.275345 0,0 -1.85629,-0.81346 -2.95086,-0.917673 -1.09456,-0.104215 -2.65188,0.498522 -2.94533,1.193018 z"
       id="path4564-9-3-9-2" />
    <path
       style="fill:#008000;stroke:#008000;stroke-width:0.05347503px;stroke-linecap:butt;stroke-linejoin:miter;stroke-opacity:1;opacity:0.777"
       d="m 170.69728,64.800586 c 2.96713,2.882434 5.63782,1.694633 5.63782,1.694633 0,0 -1.45711,-1.379379 -2.44886,-1.839934 -0.99176,-0.460549 -2.66798,-0.410091 -3.18896,0.145301 z"
       id="path4564-9-3-6-4-5" />
    <path
       style="fill:#008000;stroke:#008000;stroke-width:0.05347503px;stroke-linecap:butt;stroke-linejoin:miter;stroke-opacity:1;opacity:0.777"
       d="m 172.24249,71.230924 c 3.43879,2.339563 5.85597,0.720589 5.85597,0.720589 0,0 -1.68225,-1.113332 -2.74151,-1.400073 -1.05925,-0.286737 -2.70096,0.0449 -3.11446,0.679484 z"
       id="path4564-9-3-6-0-7-4" />
    <path
       style="fill:#008000;stroke:#008000;stroke-width:0.05347503px;stroke-linecap:butt;stroke-linejoin:miter;stroke-opacity:1;opacity:0.777"
       d="m 169.78005,50.294691 c 3.4388,2.339564 5.85598,0.720591 5.85598,0.720591 0,0 -1.68226,-1.113333 -2.74151,-1.400072 -1.05926,-0.286739 -2.70097,0.0449 -3.11447,0.679481 z"
       id="path4564-9-3-62-8-7" />
    <path
       style="fill:#008000;stroke:#008000;stroke-width:0.05347503px;stroke-linecap:butt;stroke-linejoin:miter;stroke-opacity:1;opacity:0.777"
       d="m 199.91617,73.815435 c 4.0575,-1.059222 5.75727,1.262907 5.75727,1.262907 0,0 -1.97392,0.488872 -3.07054,0.407394 -1.09661,-0.08148 -2.52222,-0.937 -2.68673,-1.670301 z"
       id="path4564-3-5-9-6-4-4" />
    <path
       style="fill:#008000;stroke:#008000;stroke-width:0.05347503px;stroke-linecap:butt;stroke-linejoin:miter;stroke-opacity:1;opacity:0.777"
       d="m 199.54711,73.351524 c 3.44579,-2.329891 2.70193,-5.083789 2.70193,-5.083789 0,0 -1.65544,1.150445 -2.29589,2.016531 -0.64045,0.866086 -0.88023,2.473832 -0.40604,3.067258 z"
       id="path4564-3-5-1-1-5-4" />
  </g>
</svg>
