<?xml version="1.0" encoding="UTF-8" standalone="no"?>
<svg
   version="1.0"
   width="170pt"
   height="170pt"
   viewBox="0 0 170 170"
   preserveAspectRatio="xMidYMid"
   id="svg136"
   sodipodi:docname="tree.svg"
   inkscape:version="1.4.2 (ebf0e940, 2025-05-08)"
   xmlns:inkscape="http://www.inkscape.org/namespaces/inkscape"
   xmlns:sodipodi="http://sodipodi.sourceforge.net/DTD/sodipodi-0.dtd"
   xmlns="http://www.w3.org/2000/svg"
   xmlns:svg="http://www.w3.org/2000/svg">
  <defs
     id="defs136" />
  <sodipodi:namedview
     id="namedview136"
     pagecolor="#ffffff"
     bordercolor="#000000"
     borderopacity="0.25"
     inkscape:showpageshadow="2"
     inkscape:pageopacity="0.0"
     inkscape:pagecheckerboard="0"
     inkscape:deskcolor="#d1d1d1"
     inkscape:document-units="pt"
     showguides="true"
     inkscape:zoom="2.2632356"
     inkscape:cx="12.813513"
     inkscape:cy="105.15918"
     inkscape:window-width="1536"
     inkscape:window-height="907"
     inkscape:window-x="0"
     inkscape:window-y="25"
     inkscape:window-maximized="1"
     inkscape:current-layer="svg136">
    <sodipodi:guide
       position="66.534439,-42.837566"
       orientation="0,-1"
       id="guide138"
       inkscape:locked="false" />
    <sodipodi:guide
       position="84.93212,185.03583"
       orientation="1,0"
       id="guide141"
       inkscape:locked="false" />
  </sodipodi:namedview>
  <metadata
     id="metadata1">
Created by potrace 1.10, written by Peter Selinger 2001-2011
</metadata>
  <g
     id="g138"
     transform="translate(-5.0371749,-61.71535)">
    <path
       d="m 101.9,79 c -3.1,3.1 -3.8,7.9 -1.2,8.7 2.3,0.8 6.3,-4.4 6.3,-8.2 0,-4.3 -1.2,-4.4 -5.1,-0.5 z"
       id="path1"
       style="fill:#739345;fill-opacity:1;stroke:none;stroke-width:0.1" />
    <path
       d="m 66.5,78.1 c -0.9,1.4 1.3,6.6 3.2,7.3 3.6,1.4 4.3,-1.8 1.2,-5.8 -2.2,-2.8 -3.4,-3.2 -4.4,-1.5 z"
       id="path2"
       style="fill:#739345;fill-opacity:1;stroke:none;stroke-width:0.1" />
    <path
       d="m 81,81.5 c 0,3.6 0.6,5.2 2.6,7.2 2.6,2.6 2.7,2.6 4.1,0.7 1.7,-2.4 0.8,-7.1 -2,-10.2 C 82.4,75.7 81,76.4 81,81.5 Z"
       id="path3"
       style="fill:#739345;fill-opacity:1;stroke:none;stroke-width:0.1" />
    <path
       d="M 92.7,78.8 C 90.1,81.6 90,88 92.5,88 c 2.1,0 4.7,-4.5 4.3,-7.6 -0.4,-3.4 -1.9,-4 -4.1,-1.6 z"
       id="path4"
       style="fill:#567d38;fill-opacity:0.992157;stroke:none;stroke-width:0.1" />
    <path
       d="m 116.6,80.6 c -1,2.5 -0.7,6.2 0.5,7 2.6,1.6 4,-5.5 1.5,-7.5 -1.1,-0.9 -1.5,-0.8 -2,0.5 z"
       id="path5"
       style="fill:#739345;fill-opacity:1;stroke:none;stroke-width:0.1" />
    <path
       d="m 56,85.3 c 0,2.1 0.7,4.1 1.9,5.1 1.9,1.7 2,1.7 3.1,-0.4 1,-1.9 0.9,-2.7 -0.7,-4.8 C 57.4,81.3 56,81.3 56,85.3 Z"
       id="path6"
       style="fill:#95b455;fill-opacity:1;stroke:none;stroke-width:0.1" />
    <path
       d="m 110.1,83.7 c -1.6,3 -1.4,6.5 0.5,9.1 1.3,1.8 1.9,2.1 3,1.1 2,-1.6 1.7,-7.3 -0.5,-10 l -1.8,-2.3 z"
       id="path7"
       style="fill:#95b455;fill-opacity:1;stroke:none;stroke-width:0.1" />
    <path
       d="m 75.2,85.5 c -2.7,3.4 -2.8,7.5 -0.3,10.6 l 1.8,2.3 1.7,-3.2 c 1.9,-3.7 2,-6.9 0.2,-10.1 l -1.3,-2.3 z"
       id="path8"
       style="fill:#95b455;fill-opacity:1;stroke:none;stroke-width:0.1" />
    <path
       d="m 63.4,88.6 c -0.8,3.3 0.8,6.8 4.1,9 3.4,2.2 5,0.7 4.1,-4 C 71,90.4 67.1,86 64.9,86 c -0.5,0 -1.2,1.2 -1.5,2.6 z"
       id="path9"
       style="fill:#567d36;fill-opacity:0.992157;stroke:none;stroke-width:0.1" />
    <path
       d="m 120.3,89.2 c -4,4.4 -4.1,10.8 -0.3,10.8 2.8,0 5,-3.9 5,-8.7 0,-4.9 -1.5,-5.6 -4.7,-2.1 z"
       id="path10"
       style="fill:#567d36;fill-opacity:0.992157;stroke:none;stroke-width:0.1" />
    <path
       d="m 128.6,89.6 c -2.3,2.2 -2.1,5.4 0.3,5.4 2,0 5.1,-3.5 5.1,-5.7 0,-1.8 -3.5,-1.6 -5.4,0.3 z"
       id="path11"
       style="fill:#739345;fill-opacity:1;stroke:none;stroke-width:0.1" />
    <path
       d="m 93.8,90.6 c -4.1,2.2 -6.5,8.2 -3.9,9.8 3,1.9 9.1,-4.4 9.1,-9.4 0,-2.4 -1.5,-2.5 -5.2,-0.4 z"
       id="path12"
       style="fill:#95b455;fill-opacity:1;stroke:none;stroke-width:0.1" />
    <path
       d="m 102.6,92.1 c -2.9,3.5 -3.3,6.6 -1.1,9.5 1.5,1.9 1.6,1.8 4,-0.9 2.5,-2.8 3,-5.3 1.9,-9.5 -0.8,-2.9 -1.7,-2.8 -4.8,0.9 z"
       id="path13"
       style="fill:#567d37;fill-opacity:0.992157;stroke:none;stroke-width:0.1" />
    <path
       d="m 47.5,92.2 c 1.1,3.7 6.3,8 9.3,7.6 3.8,-0.4 3.9,-3.2 0.4,-6.8 -2.3,-2.2 -4,-3 -6.7,-3 -3.3,0 -3.6,0.2 -3,2.2 z"
       id="path14"
       style="fill:#739345;fill-opacity:1;stroke:none;stroke-width:0.1" />
    <path
       d="m 81,94.8 c 0,3.7 3.6,7.4 5,5.2 1.6,-2.6 -0.9,-8 -3.6,-8 -0.9,0 -1.4,1.1 -1.4,2.8 z"
       id="path15"
       style="fill:#567d35;fill-opacity:0.992157;stroke:none;stroke-width:0.1" />
    <path
       d="m 133.4,96.4 c -4.1,1.8 -4.8,3.1 -2.8,5 2.4,2.4 7.8,2 11.1,-0.8 l 2.8,-2.5 -3.7,-1.5 c -4.4,-1.9 -3.5,-1.9 -7.4,-0.2 z"
       id="path16"
       style="fill:#95b455;fill-opacity:1;stroke:none;stroke-width:0.1" />
    <path
       d="m 48.714418,99.457453 c 1.64167,3.036147 1.793481,3.020467 2.186558,5.188997 0.339714,1.87414 0.09842,3.02351 1.255381,4.83549 C 53.717027,111.92618 53.3,112 56.5,115 c 3.2,2.9 9.3,11.7 12.4,17.7 1.5,3.1 2.1,6 2.1,11 l -0.1,6.8 -3.2,-3.5 c -1.8,-1.9 -3.9,-4.4 -4.7,-5.6 -1.9,-2.6 -6,-5.4 -8,-5.4 -0.8,0 -0.1,0.9 1.7,2 2.6,1.6 6.2,6.8 9.1,13.2 0.6,1.2 -10.1,0.9 -13.7,-0.3 -2.2,-0.8 -4.1,-2.7 -6.2,-6.3 -1.7,-2.8 -2.7,-4 -2.4,-2.6 1.1,3.9 4.5,8.9 6.8,10.2 1.2,0.6 5.9,1.5 10.4,1.8 l 8.3,0.7 7.5,7.9 7.4,7.9 v 13 c 0.1,12.6 -1.4,34.2 -2.5,37.7 -0.5,1.6 0.4,1.8 8.6,1.8 9.1,0 9.2,0 8.7,-2.3 -0.9,-3.6 -2.6,-26.3 -2.9,-38.9 -0.4,-14.7 0.1,-15.4 12.4,-17.5 4.7,-0.8 10.1,-2.5 12.5,-3.9 2.3,-1.3 5.3,-2.4 6.8,-2.4 2.7,0 9.5,-2.5 9.5,-3.5 0,-0.3 -0.8,-0.2 -1.7,0.3 -1,0.5 -4,1.2 -6.6,1.6 l -4.8,0.6 3.5,-6.7 c 2,-3.7 3.4,-6.8 3.2,-7.1 -0.3,-0.2 -1,0.6 -1.6,1.8 -1,1.8 -1.4,2 -2.1,0.9 -0.6,-1 -0.9,-0.8 -0.9,0.9 0,3.1 -2.2,7.1 -5.5,10.2 -2.3,2.1 -3.9,2.6 -11.3,3.1 -4.8,0.3 -8.8,0.5 -8.9,0.5 -0.2,-0.2 10.1,-14.8 13.6,-19.2 3.2,-4.1 7.1,-6.4 11.1,-6.5 3.1,-0.2 3.2,-0.2 0.7,-0.6 l -2.8,-0.4 5.6,-6.1 c 6.3,-6.8 9,-10.6 8.2,-11.4 -0.3,-0.3 -1.2,0.7 -2,2.3 -1.8,3.3 -11.2,12.3 -18.5,17.5 l -5.2,3.7 v -4.5 c 0,-4.9 3,-14.9 6.2,-20.4 1.4,-2.5 1.5,-2.9 0.3,-1.5 -1,1.1 -3,4.6 -4.5,7.8 l -2.8,5.7 -2.1,-3.2 c -2.5,-3.9 -2.7,-3.4 -0.5,1.1 2.3,4.5 0.7,17.5 -2.7,22.2 l -2.3,3.3 -1.7,-5.4 -1.8,-5.5 0.6,6.8 c 0.6,6.5 0.5,6.9 -2.3,9.8 l -2.9,3 -0.6,-2.3 c -1.1,-3.8 -1,-15.6 0.2,-20.6 0.7,-2.6 2.4,-6.1 3.9,-7.7 4.7,-5.1 6.3,-9.3 5.7,-14.6 -0.5,-4.1 -0.2,-5.2 2.3,-8.6 1.6,-2.1 3,-4.2 3,-4.7 0,-0.5 -1.5,0.9 -3.2,3.3 l -3.3,4.2 -1.7,-3.8 c -2.1,-4.8 -2.3,-3.9 -0.3,1.8 2.1,5.8 2.1,11.8 0.2,15.6 -2.6,5 -4.4,4.8 -5.1,-0.5 C 95,117.1 87.8,102 86.4,102 c -0.3,0 -0.4,0.3 -0.2,0.7 0.2,0.5 1.7,3.5 3.3,6.7 3.8,7.7 4.5,16.4 1.9,23.6 -1,2.7 -2.1,5 -2.4,5 -1.6,0 -5.2,-9.2 -4.6,-11.8 0.5,-2 0.4,-2.3 -0.3,-1.2 -0.9,1.3 -1.4,1.3 -3.2,0.1 l -2.2,-1.3 2.1,2.7 c 1.2,1.5 2.2,3.6 2.2,4.5 0,1 0.8,3.7 1.9,6.1 2.1,4.9 3.6,22.5 2.1,24.9 -0.7,1.2 -1.5,1 -4.1,-1.5 -5.6,-5.2 -6.8,-6.9 -7.8,-11.8 -1.6,-7 -1.4,-13.7 0.9,-27.2 1.1,-6.6 1.9,-14.5 1.8,-17.5 -0.1,-5.3 -0.1,-5.2 -0.8,2 -0.5,4.1 -1.5,10.4 -2.4,14 -0.9,3.6 -1.6,7.7 -1.6,9.2 0,1.6 -0.4,2.8 -0.8,2.8 -0.5,0 -2.6,-2.5 -4.8,-5.6 -2.1,-3 -6.2,-8.2 -9.1,-11.4 -2.9,-3.3 -5.5,-7.2 -5.9,-8.7 -1.1,-5.1 -2.966992,-7.910515 -6.769432,-11.179946 -0.576531,-0.577507 2.392703,3.059171 3.08385,4.337399 z M 96.1,161 c 2.4,0 2.5,2.5 0.1,4.2 -4.1,2.9 -4.5,5.3 -3.7,21.7 0.4,8.5 0.8,16.2 1,17 0.4,2 0.8,11 0.6,13.3 -0.1,1.4 -1,1.8 -4.2,1.8 h -4.1 l 0.9,-13.8 c 1.2,-20.4 1,-34.6 -0.5,-36.4 -1.1,-1.3 -0.7,-2.1 2,-5.1 1.8,-1.9 3.9,-3.3 4.6,-3.1 0.8,0.2 2.2,0.4 3.3,0.4 z"
       id="path17"
       style="fill:#744f36;fill-opacity:1;stroke:none;stroke-width:0.1"
       sodipodi:nodetypes="sssccccccsccccccccccccsccccsscccccccsccccccccscccsccccccccccccccccccsccccccscccscccccscccccccsssccccssccccscccccs" />
    <path
       d="m 110.4,100.7 c -0.7,4 0.7,7.8 3.8,9.7 2.3,1.4 3.3,0.2 3.3,-4.4 0,-2.7 -0.8,-4.7 -2.4,-6.4 -3.2,-3.4 -3.9,-3.3 -4.7,1.1 z"
       id="path18"
       style="fill:#739345;fill-opacity:1;stroke:none;stroke-width:0.1" />
    <path
       d="m 62.1,101.2 c -1.2,3.1 -0.2,6.6 2.3,8.7 4,3.3 5,-4.1 1.2,-8.6 l -2.4,-2.8 z"
       id="path19"
       style="fill:#95b455;fill-opacity:1;stroke:none;stroke-width:0.1" />
    <path
       d="m 39,103.1 c 0,3.4 4.6,8.9 7.5,8.9 4.1,0 2.2,-8.1 -2.6,-10.5 -4.1,-2.2 -4.9,-1.9 -4.9,1.6 z"
       id="path20"
       style="fill:#567d38;fill-opacity:0.992157;stroke:none;stroke-width:0.1" />
    <path
       d="m 70.5,103 c -1,1.6 0.4,4.9 2.5,6 2.3,1.2 3.4,-0.1 2.5,-3 -0.8,-2.5 -4.1,-4.4 -5,-3 z"
       id="path21"
       style="fill:#739345;fill-opacity:1;stroke:none;stroke-width:0.1" />
    <path
       d="m 79,103.1 c 0,2.3 2.2,4.9 4,4.9 2.4,0 2.6,-2.3 0.4,-4.4 -1.8,-1.8 -4.4,-2.1 -4.4,-0.5 z"
       id="path22"
       style="fill:#739345;fill-opacity:1;stroke:none;stroke-width:0.1" />
    <path
       d="m 94,103.9 c -1.5,2.8 -1.2,7.8 0.4,8.4 2.6,1 5,-3.9 4,-7.9 -0.7,-2.9 -2.9,-3.1 -4.4,-0.5 z"
       id="path23"
       style="fill:#567d38;fill-opacity:0.992157;stroke:none;stroke-width:0.1" />
    <path
       d="m 120.3,103.7 c -1.4,3.5 6.7,6.8 10.7,4.3 1.2,-0.7 1.1,-1.3 -1,-3.4 -2.8,-3.1 -8.7,-3.6 -9.7,-0.9 z"
       id="path24"
       style="fill:#739345;fill-opacity:1;stroke:none;stroke-width:0.1" />
    <path
       d="m 134.8,108 c -3.4,3.5 -3.3,5.4 0.5,5.8 3,0.4 8.7,-4.4 8.7,-7.2 0,-2.9 -5.8,-2 -9.2,1.4 z"
       id="path25"
       style="fill:#567d35;fill-opacity:0.992157;stroke:none;stroke-width:0.1" />
    <path
       d="m 57,108.8 c 0,2.6 1.5,5.2 3.1,5.2 1.4,0 1.8,-3.1 0.7,-5.5 -1.5,-3.4 -3.8,-3.2 -3.8,0.3 z"
       id="path26"
       style="fill:#567d37;fill-opacity:0.992157;stroke:none;stroke-width:0.1" />
    <path
       d="m 105.6,110.8 c -0.9,3.6 0.7,7.8 3.4,9.2 2.5,1.4 2.7,1.3 3.4,-2 0.7,-3 -1,-6.7 -4.1,-8.7 -2,-1.3 -2.2,-1.2 -2.7,1.5 z"
       id="path27"
       style="fill:#567d36;fill-opacity:0.992157;stroke:none;stroke-width:0.1" />
    <path
       d="m 70,112.3 c 0,2.3 1.7,4.7 3.2,4.7 1.2,0 0.9,-4.5 -0.4,-5.8 -1.8,-1.8 -2.8,-1.4 -2.8,1.1 z"
       id="path28"
       style="fill:#567d36;fill-opacity:0.992157;stroke:none;stroke-width:0.1" />
    <path
       d="m 81.6,112.5 c -3.3,3 -3.9,10.5 -0.8,10.5 3.7,0 6.8,-5.8 5.6,-10.4 -0.8,-3.2 -1.4,-3.2 -4.8,-0.1 z"
       id="path29"
       style="fill:#567d36;fill-opacity:0.992157;stroke:none;stroke-width:0.1" />
    <path
       d="m 37.5,113.2 c 0.8,2.7 4.3,6 5.8,5.5 2.1,-0.7 1.8,-2.7 -0.7,-5.2 -3.2,-3.2 -6,-3.4 -5.1,-0.3 z"
       id="path30"
       style="fill:#739345;fill-opacity:1;stroke:none;stroke-width:0.1" />
    <path
       d="m 123.3,111.7 c -2.5,0.5 -6.3,4.7 -6.3,7 0,2.1 2.7,2.7 6.1,1.3 4.6,-1.9 7.6,-9.3 3.6,-8.9 -0.7,0.1 -2.2,0.4 -3.4,0.6 z"
       id="path31"
       style="fill:#95b455;fill-opacity:1;stroke:none;stroke-width:0.1" />
    <path
       d="m 48.6,114.2 c -2,2.8 -2,7.8 -0.1,10.4 1.5,1.9 1.5,1.9 3.5,-0.5 2.2,-2.5 2.6,-7.1 1,-10.2 -1.4,-2.5 -2.5,-2.4 -4.4,0.3 z"
       id="path32"
       style="fill:#95b455;fill-opacity:1;stroke:none;stroke-width:0.1" />
    <path
       d="m 97.5,114.2 c -1,2.6 -0.2,5.2 1.8,5.6 2.1,0.4 2.3,-2.6 0.3,-5.4 -1.3,-1.7 -1.5,-1.8 -2.1,-0.2 z"
       id="path33"
       style="fill:#739345;fill-opacity:1;stroke:none;stroke-width:0.1" />
    <path
       d="m 64,116.9 c 0,3.5 3.5,8.1 6.1,8.1 3,0 2.4,-4.6 -1,-8.1 -3.7,-3.7 -5.1,-3.7 -5.1,0 z"
       id="path34"
       style="fill:#95b455;fill-opacity:1;stroke:none;stroke-width:0.1" />
    <path
       d="m 140.6,117.1 c -3,2.3 -3.3,3.7 -1.1,4.5 3.7,1.5 10.3,-3.8 7.3,-5.8 -2,-1.2 -3.3,-1 -6.2,1.3 z"
       id="path35"
       style="fill:#739345;fill-opacity:1;stroke:none;stroke-width:0.1" />
    <path
       d="m 29.2,117.9 c -2.2,1.3 3.2,6.9 7.4,7.7 4.1,0.8 5.9,-0.5 4.9,-3.5 -1.2,-3.8 -8.9,-6.4 -12.3,-4.2 z"
       id="path36"
       style="fill:#567d39;fill-opacity:0.992157;stroke:none;stroke-width:0.1" />
    <path
       d="m 127.8,119.5 c -0.8,1.8 -0.8,2.9 -0.1,3.6 1.7,1.7 3.3,0.1 3.3,-3.2 0,-3.6 -1.6,-3.8 -3.2,-0.4 z"
       id="path37"
       style="fill:#739345;fill-opacity:1;stroke:none;stroke-width:0.1" />
    <path
       d="m 57,127 c 0,4.4 3.4,9 6.5,9 3.7,0 3,-6.7 -1.2,-10.6 -3.8,-3.6 -5.3,-3.1 -5.3,1.6 z"
       id="path38"
       style="fill:#567d37;fill-opacity:0.992157;stroke:none;stroke-width:0.1" />
    <path
       d="m 86.7,123.6 c -1.3,1.3 -0.8,5.1 0.9,6.5 1.3,1 1.7,1 2.5,-0.2 1.2,-2 1.1,-2.4 -0.9,-4.9 -0.9,-1.2 -2.1,-1.8 -2.5,-1.4 z"
       id="path39"
       style="fill:#95b455;fill-opacity:1;stroke:none;stroke-width:0.1" />
    <path
       d="m 103.4,124.5 c -0.8,1.9 0.5,4.6 2.4,5.3 1.7,0.5 1.5,-4.3 -0.3,-5.8 -1.2,-1 -1.6,-0.9 -2.1,0.5 z"
       id="path40"
       style="fill:#739345;fill-opacity:1;stroke:none;stroke-width:0.1" />
    <path
       d="m 118.2,124 c -2.2,1 -5.5,6.8 -4.6,8.2 1.8,2.8 11.4,-3.7 11.4,-7.6 0,-1.8 -3.1,-2 -6.8,-0.6 z"
       id="path41"
       style="fill:#567d34;fill-opacity:0.992157;stroke:none;stroke-width:0.1" />
    <path
       d="m 135.2,124.5 c -2.2,1.6 -2.2,1.8 -0.7,3.5 2.4,2.7 6,3.2 10.2,1.5 l 3.7,-1.6 -2,-2 c -2.8,-2.8 -8.3,-3.4 -11.2,-1.4 z"
       id="path42"
       style="fill:#95b455;fill-opacity:1;stroke:none;stroke-width:0.1" />
    <path
       d="m 36.6,128.9 c -0.4,0.5 0.8,2.3 2.5,4.1 2.4,2.4 3.9,3 6.2,2.8 4,-0.4 4.3,-1.8 1.3,-5.1 -1.8,-1.9 -3.5,-2.7 -6,-2.7 -1.9,0 -3.7,0.4 -4,0.9 z"
       id="path43"
       style="fill:#95b455;fill-opacity:1;stroke:none;stroke-width:0.1" />
    <path
       d="m 48,128.8 c 0,2 3.4,5.2 5.6,5.2 2.8,0 3,-0.7 0.8,-3.8 C 53,128.1 48,127 48,128.8 Z"
       id="path44"
       style="fill:#739345;fill-opacity:1;stroke:none;stroke-width:0.1" />
    <path
       d="m 77,129.9 c -1.4,2.7 -1.3,6.1 0.3,6.1 2.1,0 3.7,-2.2 3.7,-5.2 0,-3.3 -2.4,-3.8 -4,-0.9 z"
       id="path45"
       style="fill:#95b455;fill-opacity:1;stroke:none;stroke-width:0.1" />
    <path
       d="m 129,129.8 c 0,2.4 2.3,4.5 4.4,4 1.3,-0.2 1.4,-0.7 0.3,-2.8 -1.6,-3.1 -4.7,-3.9 -4.7,-1.2 z"
       id="path46"
       style="fill:#739345;fill-opacity:1;stroke:none;stroke-width:0.1" />
    <path
       d="m 101.5,134 c -2.5,4.7 -0.2,10.7 3,8 2.3,-1.9 1.8,-11 -0.6,-11 -0.5,0 -1.5,1.3 -2.4,3 z"
       id="path51"
       style="fill:#567d35;fill-opacity:0.992157;stroke:none;stroke-width:0.1" />
    <path
       d="m 138.2,134 c -1.9,0.8 -2.1,1.3 -1.2,3 0.6,1.1 1.9,2.4 3,3 2.4,1.3 8,1.3 10,0 1.3,-0.8 1.1,-1.3 -1,-3.4 -2.9,-2.9 -7.4,-4 -10.8,-2.6 z"
       id="path53"
       style="fill:#567d35;fill-opacity:0.992157;stroke:none;stroke-width:0.1" />
    <path
       d="m 33,135.8 c 0,2.5 4.1,6.2 6.8,6.2 3.1,0 2.8,-3.3 -0.4,-5.9 -3.3,-2.6 -6.4,-2.7 -6.4,-0.3 z"
       id="path56"
       style="fill:#739345;fill-opacity:1;stroke:none;stroke-width:0.1" />
    <path
       d="m 95.6,136.2 c -0.7,2.7 1.1,4.9 2.3,2.9 0.9,-1.5 0.3,-5.1 -0.9,-5.1 -0.4,0 -1,1 -1.4,2.2 z"
       id="path57"
       style="fill:#95b455;fill-opacity:1;stroke:none;stroke-width:0.1" />
    <path
       d="m 124.2,137.2 c -1.9,1.9 -1.4,3.7 1.3,4.4 5.2,1.3 11,-2.4 7.4,-4.7 -2,-1.3 -7.3,-1.1 -8.7,0.3 z"
       id="path60"
       style="fill:#95b455;fill-opacity:1;stroke:none;stroke-width:0.1" />
    <path
       d="m 79.3,139.5 c -3,2.1 -4,7.2 -1.8,9.4 1.5,1.5 1.8,1.4 4.1,-1.3 1.8,-2 2.4,-3.8 2.2,-5.9 -0.4,-3.6 -1.6,-4.2 -4.5,-2.2 z"
       id="path65"
       style="fill:#739345;fill-opacity:1;stroke:none;stroke-width:0.1" />
    <path
       d="m 47.5,141.2 c 1.1,3.5 4.4,6.6 7.7,7.3 4.2,1 5.3,-0.6 3.4,-4.4 -1.9,-3.6 -4.4,-5.1 -8.6,-5.1 -2.8,0 -3.1,0.3 -2.5,2.2 z"
       id="path67"
       style="fill:#567d38;fill-opacity:0.992157;stroke:none;stroke-width:0.1" />
    <path
       d="m 65,140.4 c 0,1.9 2.9,4.8 4.1,4.1 1.3,-0.9 1.1,-2.1 -0.7,-3.9 -1.9,-2 -3.4,-2 -3.4,-0.2 z"
       id="path68"
       style="fill:#739345;fill-opacity:1;stroke:none;stroke-width:0.1" />
    <path
       d="m 118,142.7 c -2.6,0.9 -6,4.6 -6,6.4 0,4.1 8.2,2.4 10.6,-2.2 0.8,-1.7 1.4,-3.2 1.2,-3.4 -0.9,-0.8 -4.5,-1.3 -5.8,-0.8 z"
       id="path71"
       style="fill:#567d34;fill-opacity:0.992157;stroke:none;stroke-width:0.1" />
    <path
       d="m 135.2,143.1 c -2.9,1.1 -2.4,3 1.2,4.7 3.4,1.7 7.9,0.8 7.4,-1.5 -0.4,-2.3 -5.7,-4.3 -8.6,-3.2 z"
       id="path72"
       style="fill:#739345;fill-opacity:1;stroke:none;stroke-width:0.1" />
    <path
       d="m 31.9,145.9 c -2.4,2 -2.4,2 -0.4,3.5 3.7,2.8 12.5,1.5 12.5,-1.9 0,-3.6 -8.3,-4.7 -12.1,-1.6 z"
       id="path75"
       style="fill:#95b455;fill-opacity:1;stroke:none;stroke-width:0.1" />
    <path
       d="m 132.8,150.1 c -1,0.5 -1.8,1.7 -1.8,2.4 0,2 3.5,1.9 5.5,-0.1 1.3,-1.4 1.4,-1.9 0.3,-2.5 -1.6,-1.1 -1.9,-1.1 -4,0.2 z"
       id="path83"
       style="fill:#567d34;fill-opacity:0.992157;stroke:none;stroke-width:0.1" />
    <path
       d="m 141.8,150.5 c -4.1,2.3 -5,7.5 -1.2,7.5 3.8,0 9.4,-5.1 9.4,-8.5 0,-1.1 -5.7,-0.3 -8.2,1 z"
       id="path84"
       style="fill:#95b455;fill-opacity:1;stroke:none;stroke-width:0.1" />
    <path
       d="m 36.643125,153.00863 c -3.7725,2.5655 -4.287668,5.46305 -4.249874,6.07763 0.05446,0.8855 3.246876,1.32724 6.630999,-1.09513 4.783409,-2.56608 4.513036,-5.09147 4.604874,-5.52562 0.174126,-0.27413 -2.579249,-1.96713 -6.985999,0.54312 z"
       id="path90"
       style="fill:#567d3a;fill-opacity:0.99;stroke:none;stroke-width:0.1"
       sodipodi:nodetypes="csccc" />
    <path
       d="m 45.7,154.8 c -2.2,2.4 -2.1,3.2 0.1,3.2 2.1,0 4.2,-1.8 4.2,-3.7 0,-1.9 -2.4,-1.6 -4.3,0.5 z"
       id="path91"
       style="fill:#739345;fill-opacity:1;stroke:none;stroke-width:0.1" />
    <path
       d="m 106.9,155 c -1.9,1.6 -2.1,2.1 -1,2.9 1.8,1.2 5,0.2 6.1,-1.9 1.8,-3.4 -1.5,-4.1 -5.1,-1 z"
       id="path92"
       style="fill:#739345;fill-opacity:1;stroke:none;stroke-width:0.1" />
    <path
       d="m 115.3,153.7 c -2,0.7 -1.5,3.3 0.5,3.3 1.9,0 4.2,-1.8 4.2,-3.2 0,-0.9 -2.7,-0.9 -4.7,-0.1 z"
       id="path93"
       style="fill:#95b455;fill-opacity:1;stroke:none;stroke-width:0.1" />
    <path
       d="m 50,157.8 c -3.4,1.7 -6.6,6.4 -5.6,8.1 1,1.5 8,-0.6 9.9,-3 2,-2.5 2.3,-6.9 0.5,-6.9 -0.7,0 -2.9,0.8 -4.8,1.8 z"
       id="path97"
       style="fill:#95b455;fill-opacity:1;stroke:none;stroke-width:0.1" />
    <path
       d="m 60.9,157.9 -2.4,1.9 3,1.2 c 3.4,1.3 7.5,0 7.5,-2.4 0,-3 -4.8,-3.4 -8.1,-0.7 z"
       id="path98"
       style="fill:#739345;fill-opacity:1;stroke:none;stroke-width:0.1" />
    <path
       d="m 132.8,158.7 c -2.2,0.5 -2.3,1.7 -0.3,3.3 1.7,1.4 6.9,0.5 6,-1 -1,-1.6 -3.8,-2.7 -5.7,-2.3 z"
       id="path99"
       style="fill:#739345;fill-opacity:1;stroke:none;stroke-width:0.1" />
    <path
       d="m 123,162 c -1.2,0.7 -1.2,1.3 -0.1,3.3 2.1,3.9 7.7,5.8 11,3.8 2.7,-1.7 -3.8,-8.1 -8.2,-8.1 -0.7,0 -1.9,0.4 -2.7,1 z"
       id="path102"
       style="fill:#567d33;fill-opacity:0.992157;stroke:none;stroke-width:0.1" />
    <path
       d="m 60.1,165.7 c -1.6,1.6 -3.2,3.8 -3.6,5 -0.6,2.1 -0.3,2.3 2.8,2.3 4.1,0 8.7,-4 8.7,-7.6 0,-3.4 -4.1,-3.2 -7.9,0.3 z"
       id="path105"
       style="fill:#567d39;fill-opacity:0.992157;stroke:none;stroke-width:0.1" />
    <path
       d="m 71,165.4 c -0.9,2.6 -0.3,6.6 1.1,6.6 1.6,0 3.8,-4.6 3.2,-6.8 -0.7,-2.9 -3.1,-2.8 -4.3,0.2 z"
       id="path106"
       style="fill:#739345;fill-opacity:1;stroke:none;stroke-width:0.1" />
    <path
       d="m 116.5,164.9 c -0.6,1 2.1,4.1 3.6,4.1 1.3,0 1.1,-2.4 -0.3,-3.8 -1.4,-1.4 -2.5,-1.5 -3.3,-0.3 z"
       id="path107"
       style="fill:#95b455;fill-opacity:1;stroke:none;stroke-width:0.1" />
    <path
       d="m 107.4,167.5 c -1.5,3.7 6.8,9.5 11.2,7.8 2.2,-0.8 1.7,-2.2 -2,-5.9 -3.6,-3.6 -8.2,-4.6 -9.2,-1.9 z"
       id="path111"
       style="fill:#739345;fill-opacity:1;stroke:none;stroke-width:0.1" />
    <path
       style="fill:#744f36;fill-opacity:0.968254;stroke-width:0.75"
       d="m 83.54043,219.52229 c 2.23587,-36.99358 1.829348,-35.97727 1.829348,-35.97727 l -1.219568,-18.9033 3.658703,-2.23588 4.065232,-3.25218 6.50436,1.42283 2.032615,2.64239 -5.488052,5.48806 c 0,0 -2.439143,6.91089 -1.422833,20.73266 1.016302,13.82178 0.406522,12.19569 0.813045,19.10658 0.406522,6.91088 0.813045,13.00873 0.813045,13.00873 z"
       id="path137" />
  </g>
</svg>
